<svg width="658" height="647" viewBox="0 0 658 647" fill="none" xmlns="http://www.w3.org/2000/svg">
<path d="M97.2475 245.133C97.0268 245.647 96.9532 261.375 97.0267 280.116L97.2475 314.217L104.458 314.291C108.357 314.364 111.594 314.291 111.594 314.07C111.594 313.85 111.668 304.149 111.668 292.536C111.741 274.457 111.704 273.444 111.962 272.021C113.065 273.124 114.263 274.893 115.346 276.074C116.156 276.956 118.804 280.483 121.158 283.938C125.499 290.111 130.723 297.534 133.077 300.768C134.549 302.899 135.064 302.605 138.889 297.167C141.151 293.924 143.229 290.812 145.584 287.612C147.35 285.187 149.925 281.586 151.323 279.528C152.721 277.47 154.634 274.751 155.59 273.501L157.209 271.15V314.438H171.923V244.251H157.945L154.781 248.66C148.562 257.203 142.949 266.52 136.314 274.677L134.549 276.735L129.472 269.533C125.109 263.377 114.993 249.94 113.213 246.088C112.403 244.324 112.109 244.251 104.973 244.251C99.7489 244.251 97.4682 244.545 97.2475 245.133Z" fill="white"/>
<path d="M186.196 245.206C186.049 245.721 185.976 261.375 186.049 280.116L186.27 314.144H231.885L232.326 299.371H201.352V286.877L216.655 286.73L231.885 286.51L232.326 272.179H201.352V259.684H232.326L231.885 244.618L209.224 244.471C192.671 244.398 186.417 244.618 186.196 245.206Z" fill="white"/>
<path d="M243.288 245.353C243.288 246.235 244.465 248.366 249.468 257.112C250.425 258.729 252.043 261.522 253 263.359C253.023 263.4 253.046 263.442 253.07 263.485C254.137 265.388 256.503 269.609 258.518 272.987C260.799 276.956 261.976 279.675 261.608 280.336C261.314 280.924 259.548 283.938 257.708 287.098C255.869 290.258 254.324 292.977 254.324 293.198C254.324 293.492 251.087 299.371 246.746 306.721C242.92 313.335 242.626 314.952 245.348 314.438C246.011 314.291 249.468 314.144 253 314.144L259.401 314.07L266.537 301.356C270.436 294.447 274.189 288.127 274.851 287.392C275.66 286.363 276.837 286.142 279.633 286.289L283.385 286.51L283.753 300.327C283.974 307.897 284.415 314.07 284.783 313.997C286.811 313.997 289.886 314.058 292.435 314.144L298.1 314.291L298.835 286.51L306.487 286.069L312.226 296.358C315.389 302.017 318.847 308.338 319.951 310.396L322.011 314.07L329.147 314.144C336.284 314.217 338.344 314.144 338.785 313.703C338.932 313.556 338.27 312.233 337.24 310.616C336.284 309.073 333.782 304.516 331.575 300.474C329.441 296.432 327.161 292.316 326.425 291.287C325.763 290.258 324.438 287.98 323.482 286.142C322.526 284.305 321.348 282.027 320.833 280.998C319.951 279.381 320.098 278.867 321.716 276.074C322.746 274.31 324.733 270.782 326.057 268.283C328.605 263.729 331.138 259.356 333.709 254.687C336.137 250.277 338.197 246.309 338.344 245.721C338.638 244.545 329.956 243.957 325.027 244.765C322.378 245.28 321.569 245.794 320.466 247.852C318.642 251.313 309.63 271.609 305.383 272.62C304.5 272.84 302.735 272.913 301.337 272.767L298.835 272.546V258.95C298.835 251.453 298.615 245.206 298.32 244.912C298.026 244.692 294.715 244.618 290.963 244.618L284.121 244.765L283.385 272.546L279.559 272.767C275.881 272.987 275.587 272.84 274.777 270.929C274.262 269.827 273.085 267.769 272.129 266.446C269.263 262.97 266.874 257.638 264.551 253.731L259.106 244.398L251.234 244.545C246.378 244.545 243.288 244.912 243.288 245.353Z" fill="white"/>
<path d="M358.429 244.839C358.208 245.059 358.061 257.406 358.061 272.252V299.298L348.202 299.739L348.349 322.522H363.432L363.579 314.438L384.768 314.217L405.883 314.07V322.963L420.745 322.522V311.131L420.671 299.739L411.769 299.298V245.721L410.15 245.059C408.384 244.398 359.091 244.251 358.429 244.839ZM396.319 299.371H384.988C375.35 299.371 373.585 299.224 373.217 298.196C372.628 296.652 372.628 260.052 373.29 259.464C373.511 259.17 378.808 258.95 385.062 258.95H396.319V299.371Z" fill="white"/>
<path d="M425.012 245.133C425.012 245.868 430.725 256.036 431.854 257.994C432.829 259.685 434.267 262.505 435.238 264.388C436.563 266.74 438.623 270.341 439.8 272.326C440.977 274.31 441.933 276 441.933 276.147C441.933 276.294 444.067 280.189 446.716 284.746C449.364 289.376 451.498 293.418 451.498 293.712C451.498 294.006 449.364 298.637 446.716 303.928C444.067 309.146 441.933 313.629 441.933 313.776C441.933 313.923 445.686 314.07 450.247 314.07H458.487L465.035 300.621C468.714 293.271 476.365 277.764 482.104 266.152C487.99 254.246 492.183 244.986 491.668 244.839C490.344 244.471 475.924 244.618 475.629 244.986C475.262 245.427 465.624 265.123 462.534 271.591C461.283 274.383 460.106 276.588 459.885 276.588C459.738 276.588 458.928 275.339 458.119 273.795C457.31 272.326 456.28 270.562 455.912 269.974C455.471 269.386 452.822 264.756 449.953 259.685C447.891 256.041 444.416 248.87 442.522 246.309C441.198 244.986 439.947 244.765 433.031 244.618C427.955 244.471 425.012 244.618 425.012 245.133Z" fill="white"/>
<path d="M506.383 262.624L511.68 267.842C514.623 270.709 516.977 273.134 516.977 273.281C516.977 273.354 512.563 273.428 507.118 273.354L497.26 273.281L496.965 276.809C496.818 278.72 496.818 280.483 496.892 280.851C497.039 281.145 501.821 281.292 507.56 281.145C516.315 280.998 517.86 281.145 516.977 281.953C516.388 282.468 513.74 285.114 511.165 287.759C507.118 291.949 506.603 292.757 507.486 293.639C508.075 294.153 509.399 295.329 510.429 296.285L512.342 297.902L520.656 289.45L529.043 280.998H535.149C538.534 280.998 541.256 281.292 541.256 281.586C541.256 281.88 539.122 284.305 536.474 286.877C533.825 289.45 531.691 291.949 531.691 292.39C531.691 292.83 532.869 294.3 534.266 295.697L536.768 298.122L545.302 289.597L553.763 280.998H566.565L561.267 286.363C558.398 289.303 555.97 292.022 555.97 292.463C555.97 292.831 557.147 294.3 558.545 295.697L561.194 298.196L582.088 277.323L571.568 266.887L561.047 256.524L558.545 258.95C557.147 260.346 555.97 261.816 555.97 262.257C555.97 262.624 558.104 265.123 560.752 267.769C563.328 270.415 565.535 272.767 565.535 272.987C565.535 273.281 562.812 273.501 559.575 273.501L553.616 273.575L536.474 256.745L533.678 259.611L530.809 262.404L536.032 267.475C538.901 270.268 541.256 272.767 541.256 273.06C541.256 273.354 538.534 273.575 535.223 273.575H529.116L520.656 265.123L512.121 256.745L506.383 262.624Z" fill="#71BF45"/>
<path d="M461.798 334.649C449.879 337.148 440.83 344.203 435.459 355.154C433.382 359.388 432.737 363.797 432.737 370.294C432.737 378.129 432.737 379.848 435.459 385.36C440.241 395.061 447.746 401.382 458.34 404.615C462.607 405.865 464.594 406.085 470.847 405.718C481.736 405.13 487.695 402.631 494.17 396.09C496.652 393.61 497.215 392.791 498.952 390.284C500.203 388.3 500.865 389.035 492.551 383.155C488.725 380.436 488.357 380.289 487.916 381.612C487.695 382.42 485.856 384.552 483.796 386.389C479.308 390.431 472.098 393.077 467.389 392.489C458.34 391.633 448.187 388.05 448.187 370.367C448.187 359.296 452.511 353.86 459.076 350.524C464.373 347.878 470.626 347.216 475.409 348.907C480.501 350.571 483.858 353.908 487.107 357.653L488.799 359.784L492.772 356.991C499.688 352.14 500.129 351.626 498.878 349.715C497.177 347.165 496.301 346.241 493.655 343.689C485.635 335.972 472.687 332.297 461.798 334.649Z" fill="white"/>
<path d="M97.1739 335.751C97.0267 336.119 96.9532 351.846 97.0267 370.661L97.2475 404.836H111.741L111.668 394.841L111.52 384.845L122.777 384.405C137.05 383.817 140.214 382.788 145.879 376.614C150.072 372.131 151.617 368.089 151.912 360.96C152.206 355.08 151.985 354.125 149.999 349.862C147.424 344.277 143.819 340.528 138.595 337.809C134.772 335.753 134.696 335.751 116.123 335.385C116.109 335.384 116.096 335.384 116.082 335.384C103.943 335.163 97.321 335.31 97.1739 335.751ZM132.415 351.773C137.786 355.815 138.963 361.989 135.284 366.104C132.341 369.412 130.208 369.926 120.349 369.926H111.594V360.151C111.594 354.713 111.815 350.083 112.109 349.789C112.477 349.495 116.523 349.348 121.232 349.495C129.251 349.715 129.914 349.862 132.415 351.773Z" fill="white"/>
<path d="M165.449 370.073L165.67 404.836L210.843 405.277L211.284 403.587C211.505 402.631 211.652 399.25 211.505 396.017L211.284 390.137L195.687 389.917L180.016 389.77V383.89C180.016 378.672 180.163 378.084 181.561 377.643C182.371 377.349 189.286 377.276 196.791 377.349L210.549 377.643L210.99 362.577H180.016V350.083H210.917L210.99 348.392C210.99 347.51 211.137 346.114 211.358 345.305C211.505 344.497 211.432 341.925 211.211 339.573L210.696 335.384H165.302L165.449 370.073Z" fill="white"/>
<path d="M226.367 348.98C226.367 357.192 227.562 370.687 230.045 373.38C230.873 375.097 234.018 378.231 237.476 380.436C241.008 382.714 247.556 383.817 257.414 383.89H266.758L267.199 404.836H281.178L281.399 370.073L281.546 335.384H266.831V351.846C266.831 364.341 266.611 368.383 265.949 368.603C265.434 368.75 261.314 368.824 256.826 368.824C242.405 368.824 241.081 367.06 241.081 347.363V335.384H226.367V348.98Z" fill="white"/>
<path d="M299.571 336.266C299.35 336.78 299.277 352.434 299.35 371.029L299.571 404.836L322.599 405.056L345.627 405.203L345.186 390.284L315.021 390.137L314.58 378.01L327.676 377.937C334.886 377.937 341.728 377.79 342.905 377.79L345.039 377.643L345.112 370.294V362.944L329.809 362.724L314.58 362.577L315.021 350.45L330.324 350.23L345.627 350.083L345.186 335.751L322.526 335.531C304.795 335.384 299.792 335.531 299.571 336.266Z" fill="white"/>
<path d="M361.887 370.073L362.107 404.836H376.822L377.043 391.386L377.19 378.01H406.619V405.203H421.333V335.384H406.619V362.577H377.19V335.384H361.74L361.887 370.073Z" fill="white"/>
<path d="M511.238 370.073L511.459 404.836L525.806 405.13V378.01H541.109L543.316 381.832C545.155 385.213 550.673 395.135 554.352 401.896C555.087 403.072 555.97 404.321 556.338 404.615C557.221 405.277 570.832 405.35 572.524 404.762C573.554 404.321 573.48 404.174 572.156 403.219C571.347 402.631 570.685 401.896 570.685 401.455C570.685 401.088 568.993 397.707 566.933 394.032C564.799 390.284 562.224 385.507 561.12 383.523C560.017 381.465 557.883 377.717 556.338 375.071L553.616 370.294L556.412 364.928C558.03 361.915 559.87 358.902 560.605 358.093C561.341 357.359 561.709 356.697 561.488 356.697C561.047 356.697 563.254 352.655 568.919 342.66C570.685 339.573 572.156 336.707 572.156 336.266C572.156 335.678 569.728 335.384 564.137 335.384H556.117L553.763 339.573C552.439 341.851 550.452 345.526 549.202 347.804C548.024 350.083 545.597 354.345 543.978 357.285L540.961 362.65L526.174 362.209L525.953 348.76L525.806 335.384H511.091L511.238 370.073Z" fill="white"/>
<path fill-rule="evenodd" clip-rule="evenodd" d="M0.794289 0.175821C0.647144 0.32281 0.5 145.989 0.5 323.772V647H657.5L657.132 0.249315L329.147 0.0288322C148.748 -0.0446622 0.941433 0.0288322 0.794289 0.175821ZM271.982 68.5256C271.761 68.3051 262.417 60.6617 251.087 51.4749L230.56 34.7917H35.8147L36.1825 611.355L230.781 611.723V568.728C230.781 545.063 231.002 525.734 231.223 525.734C231.664 525.734 235.195 528.674 241.155 533.966C242.185 534.921 245.201 537.493 247.703 539.698C250.278 541.903 254.251 545.431 256.458 547.489C258.739 549.546 263.594 553.809 267.199 556.969C270.878 560.203 275.66 564.466 277.867 566.45C280.148 568.508 284.268 572.183 287.064 574.682C302.367 588.057 314.138 598.494 319.068 602.903C322.084 605.623 325.542 608.636 326.793 609.665L329 611.576L334.886 606.431C338.123 603.565 342.096 600.037 343.714 598.567C347.172 595.407 363.358 581.296 366.448 578.65C367.625 577.621 369.17 576.298 369.833 575.71C371.01 574.608 388.152 559.395 392.272 555.793C401.763 547.489 411.474 538.963 419.641 531.761C423.32 528.454 426.557 525.734 426.777 525.734C426.998 525.734 427.219 545.063 427.219 568.728V611.723H621.45V34.7917H427.734L422.51 38.9809C419.641 41.3327 416.845 43.611 416.33 44.1255C415.815 44.6399 409.194 50.0785 401.616 56.252C394.038 62.4256 387.711 67.6437 387.49 67.8642C387.122 68.3051 363.432 87.8546 352.249 96.8944C348.791 99.6872 342.464 104.905 338.197 108.433C334.003 112.034 330.104 114.901 329.662 114.901C329.147 114.901 324.659 111.52 319.656 107.331C314.653 103.215 309.135 98.6583 307.296 97.2619C304.427 95.1306 301.631 92.7788 292.95 85.5763C292.14 84.9149 287.211 80.9462 281.914 76.6835C276.69 72.4208 272.202 68.7461 271.982 68.5256Z" fill="white"/>
<path fill-rule="evenodd" clip-rule="evenodd" d="M251.087 51.4749C262.417 60.6617 271.761 68.3051 271.982 68.5256C272.202 68.7461 276.69 72.4208 281.914 76.6835C287.211 80.9462 292.14 84.9149 292.95 85.5763C301.631 92.7788 304.427 95.1306 307.296 97.2619C309.135 98.6583 314.653 103.215 319.656 107.331C324.659 111.52 329.147 114.901 329.662 114.901C330.104 114.901 334.003 112.034 338.197 108.433C342.464 104.905 348.791 99.6872 352.249 96.8944C363.432 87.8546 387.122 68.3051 387.49 67.8642C387.711 67.6437 394.038 62.4256 401.616 56.252C409.194 50.0785 415.815 44.6399 416.33 44.1255C416.845 43.611 419.641 41.3327 422.51 38.9809L427.734 34.7917H621.45V611.723H427.219V568.728C427.219 545.063 426.998 525.734 426.777 525.734C426.557 525.734 423.32 528.454 419.641 531.761C411.474 538.963 401.763 547.489 392.272 555.793C388.152 559.395 371.01 574.608 369.833 575.71C369.17 576.298 367.625 577.621 366.448 578.65C363.358 581.296 347.172 595.407 343.714 598.567C342.096 600.037 338.123 603.565 334.886 606.431L329 611.576L326.793 609.665C325.542 608.636 322.084 605.623 319.068 602.903C314.138 598.494 302.367 588.057 287.064 574.682C284.268 572.183 280.148 568.508 277.867 566.45C275.66 564.466 270.878 560.203 267.199 556.969C263.594 553.809 258.739 549.546 256.458 547.489C254.251 545.431 250.278 541.903 247.703 539.698C245.201 537.493 242.185 534.921 241.155 533.966C235.195 528.674 231.664 525.734 231.223 525.734C231.002 525.734 230.781 545.063 230.781 568.728V611.723L36.1825 611.355L35.8147 34.7917H230.56L251.087 51.4749ZM97.0267 280.116C96.9532 261.375 97.0268 245.647 97.2475 245.133C97.4682 244.545 99.7489 244.251 104.973 244.251C112.109 244.251 112.403 244.324 113.213 246.088C114.993 249.94 125.109 263.377 129.472 269.533L134.549 276.735L136.314 274.677C142.949 266.52 148.562 257.203 154.781 248.66L157.945 244.251H171.923V314.438H157.209V271.15L155.59 273.501C154.634 274.751 152.721 277.47 151.323 279.528C149.925 281.586 147.35 285.187 145.584 287.612C143.229 290.812 141.151 293.924 138.889 297.167C135.064 302.605 134.549 302.899 133.077 300.768C130.723 297.534 125.499 290.111 121.158 283.938C118.804 280.483 116.156 276.956 115.346 276.074C114.263 274.893 113.065 273.124 111.962 272.021C111.704 273.444 111.741 274.457 111.668 292.536C111.668 304.149 111.594 313.85 111.594 314.07C111.594 314.291 108.357 314.364 104.458 314.291L97.2475 314.217L97.0267 280.116ZM186.049 280.116C185.976 261.375 186.049 245.721 186.196 245.206C186.417 244.618 192.671 244.398 209.224 244.471L231.885 244.618L232.326 259.684H201.352V272.179H232.326L231.885 286.51L216.655 286.73L201.352 286.877V299.371H232.326L231.885 314.144H186.27L186.049 280.116ZM249.468 257.112C244.465 248.366 243.288 246.235 243.288 245.353C243.288 244.912 246.378 244.545 251.234 244.545L259.106 244.398L264.551 253.731C266.874 257.638 269.263 262.97 272.129 266.446C273.085 267.769 274.262 269.827 274.777 270.929C275.587 272.84 275.881 272.987 279.559 272.767L283.385 272.546L284.121 244.765L290.963 244.618C294.715 244.618 298.026 244.692 298.32 244.912C298.615 245.206 298.835 251.453 298.835 258.95V272.546L301.337 272.767C302.735 272.913 304.5 272.84 305.383 272.62C309.63 271.609 318.642 251.313 320.466 247.852C321.569 245.794 322.378 245.28 325.027 244.765C329.956 243.957 338.638 244.545 338.344 245.721C338.197 246.309 336.137 250.277 333.709 254.687C331.138 259.356 328.605 263.729 326.057 268.283C324.733 270.782 322.746 274.31 321.716 276.074C320.098 278.867 319.951 279.381 320.833 280.998C321.348 282.027 322.526 284.305 323.482 286.142C324.438 287.98 325.763 290.258 326.425 291.287C327.161 292.316 329.441 296.432 331.575 300.474C333.782 304.516 336.284 309.073 337.24 310.616C338.27 312.233 338.932 313.556 338.785 313.703C338.344 314.144 336.284 314.217 329.147 314.144L322.011 314.07L319.951 310.396C318.847 308.338 315.389 302.017 312.226 296.358L306.487 286.069L298.835 286.51L298.1 314.291L292.435 314.144C289.886 314.058 286.811 313.997 284.783 313.997C284.415 314.07 283.974 307.897 283.753 300.327L283.385 286.51L279.633 286.289C276.837 286.142 275.66 286.363 274.851 287.392C274.189 288.127 270.436 294.447 266.537 301.356L259.401 314.07L253 314.144C249.468 314.144 246.011 314.291 245.348 314.438C242.626 314.952 242.92 313.335 246.746 306.721C251.087 299.371 254.324 293.492 254.324 293.198C254.324 292.977 255.869 290.258 257.708 287.098C259.548 283.938 261.314 280.924 261.608 280.336C261.976 279.675 260.799 276.956 258.518 272.987C256.503 269.609 254.137 265.388 253.07 263.485L253 263.359C252.043 261.522 250.425 258.729 249.468 257.112ZM358.061 272.252C358.061 257.406 358.208 245.059 358.429 244.839C359.091 244.251 408.384 244.398 410.15 245.059L411.769 245.721V299.298L420.671 299.739L420.745 311.131V322.522L405.883 322.963V314.07L384.768 314.217L363.579 314.438L363.432 322.522H348.349L348.202 299.739L358.061 299.298V272.252ZM431.854 257.994C430.725 256.036 425.012 245.868 425.012 245.133C425.012 244.618 427.955 244.471 433.031 244.618C439.947 244.765 441.198 244.986 442.522 246.309C444.416 248.87 447.891 256.041 449.953 259.685C452.822 264.756 455.471 269.386 455.912 269.974C456.28 270.562 457.31 272.326 458.119 273.795C458.928 275.339 459.738 276.588 459.885 276.588C460.106 276.588 461.283 274.383 462.534 271.591C465.624 265.123 475.262 245.427 475.629 244.986C475.924 244.618 490.344 244.471 491.668 244.839C492.183 244.986 487.99 254.246 482.104 266.152C476.365 277.764 468.714 293.271 465.035 300.621L458.487 314.07H450.247C445.686 314.07 441.933 313.923 441.933 313.776C441.933 313.629 444.067 309.146 446.716 303.928C449.364 298.637 451.498 294.006 451.498 293.712C451.498 293.418 449.364 289.376 446.716 284.746C444.067 280.189 441.933 276.294 441.933 276.147C441.933 276 440.977 274.31 439.8 272.326C438.623 270.341 436.563 266.74 435.238 264.388C434.267 262.505 432.829 259.685 431.854 257.994ZM511.68 267.842L506.383 262.624L512.121 256.745L520.656 265.123L529.116 273.575H535.223C538.534 273.575 541.256 273.354 541.256 273.06C541.256 272.767 538.901 270.268 536.032 267.475L530.809 262.404L533.678 259.611L536.474 256.745L553.616 273.575L559.575 273.501C562.812 273.501 565.535 273.281 565.535 272.987C565.535 272.767 563.328 270.415 560.752 267.769C558.104 265.123 555.97 262.624 555.97 262.257C555.97 261.816 557.147 260.346 558.545 258.95L561.047 256.524L571.568 266.887L582.088 277.323L561.194 298.196L558.545 295.697C557.147 294.3 555.97 292.831 555.97 292.463C555.97 292.022 558.398 289.303 561.267 286.363L566.565 280.998H553.763L545.302 289.597L536.768 298.122L534.266 295.697C532.869 294.3 531.691 292.83 531.691 292.39C531.691 291.949 533.825 289.45 536.474 286.877C539.122 284.305 541.256 281.88 541.256 281.586C541.256 281.292 538.534 280.998 535.149 280.998H529.043L520.656 289.45L512.342 297.902L510.429 296.285C509.399 295.329 508.075 294.153 507.486 293.639C506.603 292.757 507.118 291.949 511.165 287.759C513.74 285.114 516.388 282.468 516.977 281.953C517.86 281.145 516.315 280.998 507.56 281.145C501.821 281.292 497.039 281.145 496.892 280.851C496.818 280.483 496.818 278.72 496.965 276.809L497.26 273.281L507.118 273.354C512.563 273.428 516.977 273.354 516.977 273.281C516.977 273.134 514.623 270.709 511.68 267.842ZM435.459 355.154C440.83 344.203 449.879 337.148 461.798 334.649C472.687 332.297 485.635 335.972 493.655 343.689C496.301 346.241 497.177 347.165 498.878 349.715C500.129 351.626 499.688 352.14 492.772 356.991L488.799 359.784L487.107 357.653C483.858 353.908 480.501 350.571 475.409 348.907C470.626 347.216 464.373 347.878 459.076 350.524C452.511 353.86 448.187 359.296 448.187 370.367C448.187 388.05 458.34 391.633 467.389 392.489C472.098 393.077 479.308 390.431 483.796 386.389C485.856 384.552 487.695 382.42 487.916 381.612C488.357 380.289 488.725 380.436 492.551 383.155C500.865 389.035 500.203 388.3 498.952 390.284C497.215 392.791 496.652 393.61 494.17 396.09C487.695 402.631 481.736 405.13 470.847 405.718C464.594 406.085 462.607 405.865 458.34 404.615C447.746 401.382 440.241 395.061 435.459 385.36C432.737 379.848 432.737 378.129 432.737 370.294C432.737 363.797 433.382 359.388 435.459 355.154ZM97.0267 370.661C96.9532 351.846 97.0267 336.119 97.1739 335.751C97.321 335.31 103.943 335.163 116.082 335.384L116.123 335.385C134.696 335.751 134.772 335.753 138.595 337.809C143.819 340.528 147.424 344.277 149.999 349.862C151.985 354.125 152.206 355.08 151.912 360.96C151.617 368.089 150.072 372.131 145.879 376.614C140.214 382.788 137.05 383.817 122.777 384.405L111.52 384.845L111.668 394.841L111.741 404.836H97.2475L97.0267 370.661ZM165.67 404.836L165.449 370.073L165.302 335.384H210.696L211.211 339.573C211.432 341.925 211.505 344.497 211.358 345.305C211.137 346.114 210.99 347.51 210.99 348.392L210.917 350.083H180.016V362.577H210.99L210.549 377.643L196.791 377.349C189.286 377.276 182.371 377.349 181.561 377.643C180.163 378.084 180.016 378.672 180.016 383.89V389.77L195.687 389.917L211.284 390.137L211.505 396.017C211.652 399.25 211.505 402.631 211.284 403.587L210.843 405.277L165.67 404.836ZM226.367 348.98V335.384H241.081V347.363C241.081 367.06 242.405 368.824 256.826 368.824C261.314 368.824 265.434 368.75 265.949 368.603C266.611 368.383 266.831 364.341 266.831 351.846V335.384H281.546L281.399 370.073L281.178 404.836H267.199L266.758 383.89H257.414C247.556 383.817 241.008 382.714 237.476 380.436C234.018 378.231 230.873 375.097 230.045 373.38C227.562 370.687 226.367 357.192 226.367 348.98ZM299.35 371.029C299.277 352.434 299.35 336.78 299.571 336.266C299.792 335.531 304.795 335.384 322.526 335.531L345.186 335.751L345.627 350.083L330.324 350.23L315.021 350.45L314.58 362.577L329.809 362.724L345.112 362.944V370.294L345.039 377.643L342.905 377.79C341.728 377.79 334.886 377.937 327.676 377.937L314.58 378.01L315.021 390.137L345.186 390.284L345.627 405.203L322.599 405.056L299.571 404.836L299.35 371.029ZM362.107 404.836L361.887 370.073L361.74 335.384H377.19V362.577H406.619V335.384H421.333V405.203H406.619V378.01H377.19L377.043 391.386L376.822 404.836H362.107ZM511.459 404.836L511.238 370.073L511.091 335.384H525.806L525.953 348.76L526.174 362.209L540.961 362.65L543.978 357.285C545.597 354.345 548.024 350.083 549.202 347.804C550.452 345.526 552.439 341.851 553.763 339.573L556.117 335.384H564.137C569.728 335.384 572.156 335.678 572.156 336.266C572.156 336.707 570.685 339.573 568.919 342.66C563.254 352.655 561.047 356.697 561.488 356.697C561.709 356.697 561.341 357.359 560.605 358.093C559.87 358.902 558.03 361.915 556.412 364.928L553.616 370.294L556.338 375.071C557.883 377.717 560.017 381.465 561.12 383.523C562.224 385.507 564.799 390.284 566.933 394.032C568.993 397.707 570.685 401.088 570.685 401.455C570.685 401.896 571.347 402.631 572.156 403.219C573.48 404.174 573.554 404.321 572.524 404.762C570.832 405.35 557.221 405.277 556.338 404.615C555.97 404.321 555.087 403.072 554.352 401.896C550.673 395.135 545.155 385.213 543.316 381.832L541.109 378.01H525.806V405.13L511.459 404.836Z" fill="#04341C"/>
<path d="M396.319 299.371H384.988C375.35 299.371 373.585 299.224 373.217 298.196C372.628 296.652 372.628 260.052 373.29 259.464C373.511 259.17 378.808 258.95 385.062 258.95H396.319V299.371Z" fill="#04341C"/>
<path d="M132.415 351.773C137.786 355.815 138.963 361.989 135.284 366.104C132.341 369.412 130.208 369.926 120.349 369.926H111.594V360.151C111.594 354.713 111.815 350.083 112.109 349.789C112.477 349.495 116.523 349.348 121.232 349.495C129.251 349.715 129.914 349.862 132.415 351.773Z" fill="#04341C"/>
</svg>
