<svg width="64" height="64" viewBox="0 0 64 64" fill="none" xmlns="http://www.w3.org/2000/svg">
<path d="M5.33464 51.6665C4.57908 51.6665 3.94619 51.4105 3.43597 50.8985C2.92575 50.3865 2.66975 49.7536 2.66797 48.9998V14.3332C2.66797 13.5776 2.92397 12.9447 3.43597 12.4345C3.94797 11.9243 4.58086 11.6683 5.33464 11.6665C6.08841 11.6647 6.72219 11.9207 7.23597 12.4345C7.74975 12.9483 8.00486 13.5812 8.0013 14.3332V38.3332H29.3346V22.3332C29.3346 20.8665 29.8573 19.6114 30.9026 18.5678C31.948 17.5243 33.2031 17.0016 34.668 16.9998H50.668C53.6013 16.9998 56.1124 18.0443 58.2013 20.1332C60.2902 22.2221 61.3346 24.7332 61.3346 27.6665V48.9998C61.3346 49.7554 61.0786 50.3892 60.5666 50.9012C60.0546 51.4132 59.4217 51.6683 58.668 51.6665C57.9142 51.6647 57.2813 51.4087 56.7693 50.8985C56.2573 50.3883 56.0013 49.7554 56.0013 48.9998V43.6665H8.0013V48.9998C8.0013 49.7554 7.7453 50.3892 7.2333 50.9012C6.7213 51.4132 6.08841 51.6683 5.33464 51.6665ZM18.668 35.6665C16.4457 35.6665 14.5569 34.8887 13.0013 33.3332C11.4457 31.7776 10.668 29.8887 10.668 27.6665C10.668 25.4443 11.4457 23.5554 13.0013 21.9998C14.5569 20.4443 16.4457 19.6665 18.668 19.6665C20.8902 19.6665 22.7791 20.4443 24.3346 21.9998C25.8902 23.5554 26.668 25.4443 26.668 27.6665C26.668 29.8887 25.8902 31.7776 24.3346 33.3332C22.7791 34.8887 20.8902 35.6665 18.668 35.6665ZM34.668 38.3332H56.0013V27.6665C56.0013 26.1998 55.4795 24.9447 54.436 23.9012C53.3924 22.8576 52.1364 22.335 50.668 22.3332H34.668V38.3332ZM18.668 30.3332C19.4235 30.3332 20.0573 30.0772 20.5693 29.5652C21.0813 29.0532 21.3364 28.4203 21.3346 27.6665C21.3329 26.9127 21.0769 26.2798 20.5666 25.7678C20.0564 25.2558 19.4235 24.9998 18.668 24.9998C17.9124 24.9998 17.2795 25.2558 16.7693 25.7678C16.2591 26.2798 16.0031 26.9127 16.0013 27.6665C15.9995 28.4203 16.2555 29.0541 16.7693 29.5678C17.2831 30.0816 17.916 30.3367 18.668 30.3332Z" fill="white"/>
</svg>
