<svg width="64" height="64" viewBox="0 0 64 64" fill="none" xmlns="http://www.w3.org/2000/svg">
<path fill-rule="evenodd" clip-rule="evenodd" d="M58.6654 32C58.6654 46.7276 46.7263 58.6666 31.9987 58.6666C17.2711 58.6666 5.33203 46.7276 5.33203 32C5.33203 17.2724 17.2711 5.33331 31.9987 5.33331C46.7263 5.33331 58.6654 17.2724 58.6654 32ZM23.9177 23.919C24.6988 23.138 25.9651 23.138 26.7461 23.919L31.9986 29.1715L37.251 23.9191C38.0321 23.1381 39.2984 23.1381 40.0795 23.9191C40.8605 24.7001 40.8605 25.9665 40.0795 26.7475L34.827 32L40.0794 37.2523C40.8605 38.0334 40.8605 39.2997 40.0794 40.0808C39.2984 40.8618 38.032 40.8618 37.251 40.0808L31.9986 34.8284L26.7462 40.0808C25.9651 40.8619 24.6988 40.8619 23.9178 40.0808C23.1367 39.2998 23.1367 38.0334 23.9178 37.2524L29.1702 32L23.9177 26.7475C23.1367 25.9664 23.1367 24.7001 23.9177 23.919Z" fill="#04341C"/>
</svg>
