<svg width="64" height="64" viewBox="0 0 64 64" fill="none" xmlns="http://www.w3.org/2000/svg">
<path fill-rule="evenodd" clip-rule="evenodd" d="M32.1537 3.33325H31.8476C25.692 3.33322 20.8678 3.33319 17.1039 3.83924C13.2512 4.35722 10.2112 5.43812 7.82502 7.82428C5.43886 10.2104 4.35795 13.2505 3.83998 17.1031C3.33393 20.8671 3.33395 25.6912 3.33398 31.8469V32.1529C3.33395 38.3086 3.33393 43.1328 3.83998 46.8967C4.35795 50.7493 5.43886 53.7894 7.82502 56.1756C10.2112 58.5617 13.2512 59.6426 17.1039 60.1606C20.8678 60.6666 25.6919 60.6666 31.8477 60.6666H32.1536C38.3094 60.6666 43.1335 60.6666 46.8974 60.1606C50.7501 59.6426 53.7901 58.5617 56.1763 56.1756C58.5625 53.7894 59.6434 50.7493 60.1613 46.8967C60.6674 43.1327 60.6674 38.3086 60.6673 32.1529V31.8469C60.6674 25.6912 60.6674 20.8671 60.1613 17.1031C59.6434 13.2505 58.5625 10.2104 56.1763 7.82428C53.7901 5.43812 50.7501 4.35722 46.8974 3.83924C43.1335 3.33319 38.3093 3.33322 32.1537 3.33325ZM10.6534 10.6527C12.1725 9.13363 14.2278 8.26191 17.6369 7.80358C21.1035 7.3375 25.6587 7.33325 32.0007 7.33325C38.3426 7.33325 42.8978 7.3375 46.3644 7.80358C49.7735 8.26191 51.8288 9.13363 53.3479 10.6527C54.8669 12.1718 55.7387 14.227 56.197 17.6361C56.6631 21.1027 56.6673 25.658 56.6673 31.9999C56.6673 38.3419 56.6631 42.8971 56.197 46.3637C55.7387 49.7728 54.8669 51.828 53.3479 53.3471C51.8288 54.8662 49.7735 55.7379 46.3644 56.1963C42.8978 56.6623 38.3426 56.6666 32.0007 56.6666C25.6587 56.6666 21.1035 56.6623 17.6369 56.1963C14.2278 55.7379 12.1725 54.8662 10.6534 53.3471C9.13436 51.828 8.26265 49.7728 7.80431 46.3637C7.33823 42.8971 7.33399 38.3419 7.33399 31.9999C7.33399 25.658 7.33823 21.1027 7.80431 17.6361C8.26265 14.227 9.13436 12.1718 10.6534 10.6527Z" fill="#505050"/>
</svg>
