<svg width="64" height="64" viewBox="0 0 64 64" fill="none" xmlns="http://www.w3.org/2000/svg">
<path d="M42.7462 26.7475C43.5273 25.9664 43.5273 24.7001 42.7462 23.919C41.9652 23.138 40.6989 23.138 39.9178 23.919L27.9987 35.8382L24.0796 31.919C23.2985 31.138 22.0322 31.138 21.2512 31.919C20.4701 32.7001 20.4701 33.9664 21.2512 34.7475L26.5845 40.0808C27.3655 40.8618 28.6319 40.8618 29.4129 40.0808L42.7462 26.7475Z" fill="#04341C"/>
<path fill-rule="evenodd" clip-rule="evenodd" d="M32.1517 3.33325H31.8457C25.69 3.33322 20.8659 3.33319 17.1019 3.83924C13.2493 4.35722 10.2092 5.43812 7.82306 7.82428C5.4369 10.2104 4.356 13.2505 3.83802 17.1031C3.33197 20.8671 3.332 25.6912 3.33203 31.8469V32.1529C3.332 38.3086 3.33197 43.1328 3.83802 46.8967C4.356 50.7493 5.4369 53.7894 7.82306 56.1756C10.2092 58.5617 13.2493 59.6426 17.1019 60.1606C20.8659 60.6666 25.69 60.6666 31.8457 60.6666H32.1517C38.3074 60.6666 43.1315 60.6666 46.8955 60.1606C50.7481 59.6426 53.7882 58.5617 56.1743 56.1756C58.5605 53.7894 59.6414 50.7493 60.1594 46.8967C60.6654 43.1327 60.6654 38.3086 60.6654 32.1529V31.8469C60.6654 25.6912 60.6654 20.8671 60.1594 17.1031C59.6414 13.2505 58.5605 10.2104 56.1743 7.82428C53.7882 5.43812 50.7481 4.35722 46.8955 3.83924C43.1315 3.33319 38.3074 3.33322 32.1517 3.33325ZM10.6515 10.6527C12.1706 9.13363 14.2258 8.26191 17.6349 7.80358C21.1015 7.3375 25.6568 7.33325 31.9987 7.33325C38.3406 7.33325 42.8959 7.3375 46.3625 7.80358C49.7716 8.26191 51.8268 9.13363 53.3459 10.6527C54.865 12.1718 55.7367 14.227 56.195 17.6361C56.6611 21.1027 56.6654 25.658 56.6654 31.9999C56.6654 38.3419 56.6611 42.8971 56.195 46.3637C55.7367 49.7728 54.865 51.828 53.3459 53.3471C51.8268 54.8662 49.7716 55.7379 46.3625 56.1963C42.8959 56.6623 38.3406 56.6666 31.9987 56.6666C25.6568 56.6666 21.1015 56.6623 17.6349 56.1963C14.2258 55.7379 12.1706 54.8662 10.6515 53.3471C9.13241 51.828 8.26069 49.7728 7.80235 46.3637C7.33628 42.8971 7.33203 38.3419 7.33203 31.9999C7.33203 25.658 7.33628 21.1027 7.80235 17.6361C8.26069 14.227 9.13241 12.1718 10.6515 10.6527Z" fill="#04341C"/>
</svg>
