<svg width="64" height="64" viewBox="0 0 64 64" fill="none" xmlns="http://www.w3.org/2000/svg">
<path fill-rule="evenodd" clip-rule="evenodd" d="M58.6663 32.0002C58.6663 46.7278 46.7273 58.6668 31.9997 58.6668C17.2721 58.6668 5.33301 46.7278 5.33301 32.0002C5.33301 17.2726 17.2721 5.3335 31.9997 5.3335C46.7273 5.3335 58.6663 17.2726 58.6663 32.0002ZM23.9187 23.9192C24.6997 23.1382 25.9661 23.1382 26.7471 23.9192L31.9996 29.1717L37.252 23.9193C38.0331 23.1382 39.2994 23.1382 40.0804 23.9193C40.8615 24.7003 40.8615 25.9667 40.0804 26.7477L34.828 32.0001L40.0804 37.2525C40.8614 38.0336 40.8614 39.2999 40.0804 40.0809C39.2993 40.862 38.033 40.862 37.252 40.0809L31.9996 34.8286L26.7472 40.081C25.9661 40.862 24.6998 40.862 23.9187 40.081C23.1377 39.2999 23.1377 38.0336 23.9187 37.2526L29.1712 32.0001L23.9187 26.7477C23.1376 25.9666 23.1376 24.7003 23.9187 23.9192Z" fill="#71BF45"/>
</svg>
