<svg width="64" height="64" viewBox="0 0 64 64" fill="none" xmlns="http://www.w3.org/2000/svg">
<path fill-rule="evenodd" clip-rule="evenodd" d="M13.2082 6C13.2498 6.00001 13.2916 6.00001 13.3335 6.00001L50.7922 6C52.5707 5.99992 54.0911 5.99985 55.3062 6.15313C56.595 6.3157 57.8406 6.68079 58.8637 7.64065C59.9048 8.61745 60.3185 9.83616 60.5002 11.1041C60.6671 12.2689 60.667 13.7173 60.6669 15.3696L60.6668 17.4403C60.6669 18.743 60.6669 19.8692 60.5697 20.8083C60.465 21.8188 60.2362 22.7669 59.6869 23.6772C59.1418 24.5805 58.4075 25.2363 57.5613 25.8241C56.7641 26.3779 55.7456 26.9512 54.5477 27.6255L46.7012 32.0425C44.9151 33.048 44.2932 33.41 43.8779 33.7705C42.9244 34.5983 42.3783 35.5168 42.1217 36.6677C42.012 37.1596 42.0002 37.7792 42.0002 39.6612L42.0002 46.9466C42.0003 49.3499 42.0004 51.3903 41.7531 52.9589C41.4902 54.6268 40.8796 56.2265 39.2796 57.2273C37.716 58.2053 35.9935 58.1156 34.3196 57.718C32.7075 57.3351 30.7209 56.5584 28.3371 55.6264L28.1054 55.5359C26.9888 55.0994 26.0111 54.7173 25.2371 54.3176C24.4052 53.8881 23.6327 53.3537 23.0416 52.5219C22.4439 51.6807 22.2043 50.7788 22.0974 49.8569C22 49.0161 22.0001 48.007 22.0002 46.8816L22.0002 39.6612C22.0002 37.7792 21.9883 37.1596 21.8786 36.6677C21.622 35.5169 21.076 34.5983 20.1224 33.7705C19.7072 33.41 19.0853 33.048 17.2992 32.0425L9.45271 27.6255C8.2548 26.9512 7.23625 26.3779 6.43905 25.8241C5.59281 25.2363 4.85859 24.5805 4.31342 23.6772C3.76412 22.7669 3.53538 21.8188 3.43069 20.8083C3.3334 19.8692 3.33345 18.743 3.33351 17.4403L3.33351 15.5058C3.33351 15.4602 3.33351 15.4148 3.3335 15.3695C3.33338 13.7172 3.33327 12.2689 3.50018 11.1041C3.68188 9.83616 4.09552 8.61745 5.13664 7.64065C6.15971 6.68079 7.40536 6.3157 8.69412 6.15313C9.90929 5.99985 11.4297 5.99992 13.2082 6ZM9.19472 10.1217C8.30497 10.2339 8.02203 10.4184 7.87352 10.5578C7.74307 10.6801 7.57092 10.8956 7.45973 11.6715C7.33832 12.5188 7.33351 13.6765 7.33351 15.5058V17.3453C7.33351 18.7698 7.33598 19.6874 7.4094 20.3961C7.47777 21.0561 7.59516 21.3735 7.73813 21.6104C7.88523 21.8542 8.12951 22.128 8.72106 22.5389C9.34432 22.9718 10.1958 23.4535 11.4933 24.184L19.2614 28.5569C19.3341 28.5978 19.4058 28.6381 19.4763 28.6778C20.9662 29.516 21.9809 30.0869 22.7447 30.7499C24.3217 32.119 25.3334 33.7819 25.7827 35.7972C26.0011 36.7767 26.0008 37.875 26.0002 39.4253C26.0002 39.5028 26.0002 39.5814 26.0002 39.6612V46.7798C26.0002 48.0388 26.0033 48.8133 26.0709 49.3964C26.132 49.9235 26.2282 50.1007 26.3023 50.205C26.3831 50.3186 26.543 50.4902 27.0722 50.7634C27.6387 51.0559 28.4191 51.3637 29.6514 51.8454C32.2141 52.8473 33.9379 53.516 35.244 53.8263C36.5202 54.1294 36.9408 53.9722 37.1584 53.8361C37.3395 53.7228 37.6196 53.4925 37.8019 52.3359C37.9942 51.1162 38.0002 49.3959 38.0002 46.7798V39.6612C38.0002 39.5814 38.0001 39.5028 38.0001 39.4253C37.9996 37.875 37.9992 36.7767 38.2176 35.7972C38.6669 33.7819 39.6787 32.119 41.2556 30.75C42.0194 30.0869 43.0341 29.516 44.5239 28.6779C44.5945 28.6382 44.6662 28.5978 44.739 28.5569L52.507 24.184C53.8046 23.4535 54.656 22.9718 55.2793 22.5389C55.8708 22.128 56.1151 21.8542 56.2622 21.6104C56.4052 21.3735 56.5226 21.0561 56.591 20.3961C56.6644 19.6874 56.6668 18.7698 56.6668 17.3453V15.5058C56.6668 13.6765 56.662 12.5188 56.5406 11.6715C56.4294 10.8956 56.2573 10.6801 56.1268 10.5578C55.9783 10.4184 55.6954 10.2339 54.8056 10.1217C53.8707 10.0038 52.6056 10 50.6668 10H13.3335C11.3948 10 10.1296 10.0038 9.19472 10.1217Z" fill="#505050"/>
</svg>
