<svg width="64" height="64" viewBox="0 0 64 64" fill="none" xmlns="http://www.w3.org/2000/svg">
<path fill-rule="evenodd" clip-rule="evenodd" d="M16.6326 12.5639C17.6805 12.2146 18.2468 11.082 17.8975 10.0341C17.5482 8.98622 16.4156 8.4199 15.3677 8.76919L13.8882 9.26234C12.3659 9.76974 11.0754 10.1998 10.051 10.6681C8.9609 11.1664 8.00668 11.7777 7.24709 12.7368C6.4875 13.6959 6.11094 14.7647 5.87559 15.94C5.65442 17.0444 5.53132 18.3991 5.38609 19.9972L3.52672 40.4502C3.40092 41.1631 3.33473 41.8965 3.3335 42.6452C3.34801 49.6284 9.0135 55.3332 16.0001 55.3332C22.3021 55.3332 27.5292 50.731 28.5038 44.7041L29.0879 44.4957C30.9713 43.8237 33.029 43.8238 34.9124 44.4957L35.4965 44.7041C36.4711 50.731 41.6982 55.3332 48.0001 55.3332C54.9868 55.3332 60.6522 49.6283 60.6668 42.6451C60.6656 41.8965 60.5994 41.1631 60.4736 40.4502L58.6142 19.9972C58.469 18.3991 58.3459 17.0444 58.1247 15.94C57.8894 14.7647 57.5128 13.6959 56.7532 12.7368C55.9936 11.7777 55.0394 11.1664 53.9493 10.6681C52.9249 10.1998 51.6344 9.76974 50.1121 9.26234L48.6326 8.76919C47.5847 8.4199 46.4521 8.98622 46.1028 10.0341C45.7535 11.082 46.3198 12.2146 47.3677 12.5639L48.7495 13.0245C50.3958 13.5733 51.4804 13.9376 52.2864 14.3061C53.0485 14.6544 53.3905 14.9335 53.6175 15.2203C53.8446 15.507 54.038 15.9038 54.2026 16.7254C54.3766 17.5944 54.4828 18.7336 54.6399 20.4618L55.7475 32.6446C53.6058 30.9866 50.9182 29.9999 48.0001 29.9999C41.7465 29.9999 36.5513 34.5318 35.5197 40.4905C33.2207 39.8255 30.7796 39.8255 28.4806 40.4905C27.4489 34.5318 22.2538 29.9999 16.0001 29.9999C13.0821 29.9999 10.3945 30.9866 8.25282 32.6446L8.38173 31.2266L9.36034 20.4618C9.51745 18.7336 9.62369 17.5944 9.79772 16.7254C9.96226 15.9038 10.1557 15.507 10.3827 15.2203C10.6098 14.9335 10.9517 14.6544 11.7139 14.3061C12.5199 13.9376 13.6045 13.5733 15.2508 13.0245L16.6326 12.5639ZM56.5073 41.0031L56.6664 42.7527C56.6202 47.4995 52.7579 51.3332 48.0001 51.3332C43.2137 51.3332 39.3335 47.453 39.3335 42.6665C39.3335 37.8801 43.2137 33.9999 48.0001 33.9999C52.2177 33.9999 55.7316 37.0125 56.5073 41.0031ZM7.49295 41.0031L7.3339 42.7527C7.38014 47.4995 11.2424 51.3332 16.0001 51.3332C20.7866 51.3332 24.6668 47.453 24.6668 42.6665C24.6668 37.8801 20.7866 33.9999 16.0001 33.9999C11.7826 33.9999 8.26873 37.0125 7.49295 41.0031Z" fill="#505050"/>
</svg>
