<svg width="65" height="64" viewBox="0 0 65 64" fill="none" xmlns="http://www.w3.org/2000/svg">
<path fill-rule="evenodd" clip-rule="evenodd" d="M48.1295 8.43455C48.2698 8.48143 48.4121 8.52893 48.5562 8.57698L51.7617 9.64548C52.9967 10.0571 54.0791 10.4178 54.9379 10.8173C55.8663 11.2492 56.717 11.8055 57.3675 12.7079C58.0179 13.6103 58.2766 14.5933 58.3927 15.6106C58.5002 16.5516 58.5001 17.6926 58.5 18.9944V40.8946C58.5001 42.7571 58.5001 44.3279 58.3558 45.5696C58.2057 46.8597 57.8695 48.1351 56.9295 49.164C56.3718 49.7742 55.6941 50.2627 54.9388 50.5987C53.6656 51.1652 52.3493 51.0808 51.0779 50.8152C49.8542 50.5595 48.3641 50.0627 46.5972 49.4737L46.4835 49.4358C43.4953 48.4397 42.4714 48.1294 41.4773 48.1634C41.0812 48.1769 40.6875 48.2296 40.3018 48.3208C39.3338 48.5496 38.4276 49.1184 35.8068 50.8656L32.1205 53.3231C31.994 53.4075 31.8693 53.4907 31.7462 53.5729C28.9155 55.4623 26.9468 56.7763 24.6453 57.0845C22.3438 57.3927 20.0987 56.643 16.8705 55.565C16.7302 55.5181 16.588 55.4706 16.4438 55.4225L13.2382 54.354C12.0033 53.9425 10.9209 53.5817 10.0621 53.1822C9.13376 52.7504 8.28297 52.1941 7.63256 51.2917C6.98214 50.3893 6.72344 49.4062 6.6073 48.3889C6.49986 47.4479 6.49993 46.3069 6.5 45.0052L6.50001 23.1049C6.49994 21.2424 6.49988 19.6716 6.64427 18.4299C6.79428 17.1398 7.13053 15.8644 8.07057 14.8356C8.62818 14.2253 9.30589 13.7368 10.0612 13.4008C11.3345 12.8344 12.6507 12.9187 13.9221 13.1843C15.1458 13.44 16.6359 13.9368 18.4028 14.5258L18.5165 14.5637C21.5047 15.5598 22.5286 15.8701 23.5227 15.8362C23.9188 15.8226 24.3125 15.7699 24.6982 15.6788C25.6662 15.4499 26.5724 14.8811 29.1932 13.1339L32.8795 10.6764C33.006 10.5921 33.1307 10.5088 33.2538 10.4267C36.0845 8.53726 38.0532 7.22322 40.3547 6.915C42.6563 6.60679 44.9013 7.35653 48.1295 8.43455ZM42.5 10.9476V44.2111C43.9285 44.366 45.4328 44.8681 47.4148 45.5297C47.5245 45.5664 47.6357 45.6035 47.7484 45.6411C49.6595 46.2781 50.9275 46.6974 51.8961 46.8998C52.8432 47.0977 53.168 47.0085 53.313 46.9441C53.5647 46.8321 53.7906 46.6692 53.9765 46.4658C54.0835 46.3487 54.2708 46.0688 54.3825 45.1077C54.4968 44.1248 54.5 42.7892 54.5 40.7748V19.0992C54.5 17.6617 54.497 16.7515 54.4185 16.0643C54.3459 15.4283 54.2271 15.1919 54.1225 15.0467C54.0179 14.9016 53.8311 14.7141 53.2507 14.4441C52.6236 14.1523 51.7611 13.8616 50.3974 13.4071L47.2913 12.3717C44.9277 11.5839 43.5254 11.1356 42.5 10.9476ZM38.5 44.6921V11.8221C37.6701 12.3016 36.6058 12.9996 35.0983 14.0046L31.412 16.4621C31.3131 16.528 31.2157 16.5931 31.1194 16.6573C29.2841 17.882 27.9159 18.795 26.5 19.3075V52.1774C27.3299 51.6979 28.3942 50.9999 29.9017 49.9949L33.588 47.5374C33.6869 47.4715 33.7843 47.4064 33.8805 47.3423C35.7159 46.1175 37.0841 45.2045 38.5 44.6921ZM22.5 53.0519V19.7884C21.0715 19.6336 19.5672 19.1314 17.5851 18.4698C17.4754 18.4331 17.3643 18.396 17.2516 18.3585C15.3405 17.7215 14.0725 17.3022 13.1039 17.0998C12.1568 16.9019 11.832 16.991 11.6871 17.0555C11.4353 17.1675 11.2094 17.3303 11.0235 17.5337C10.9165 17.6508 10.7293 17.9308 10.6175 18.8919C10.5032 19.8748 10.5 21.2103 10.5 23.2247V44.9004C10.5 46.3379 10.503 47.2481 10.5815 47.9352C10.6541 48.5712 10.7729 48.8077 10.8775 48.9528C10.9821 49.098 11.1689 49.2854 11.7493 49.5555C12.3764 49.8472 13.2389 50.1379 14.6026 50.5925L17.7087 51.6278C20.0723 52.4157 21.4746 52.864 22.5 53.0519Z" fill="#71BF45"/>
</svg>
