<svg width="64" height="64" viewBox="0 0 64 64" fill="none" xmlns="http://www.w3.org/2000/svg">
<path fill-rule="evenodd" clip-rule="evenodd" d="M58.6673 31.9999C58.6673 46.7275 46.7282 58.6666 32.0007 58.6666C17.2731 58.6666 5.33398 46.7275 5.33398 31.9999C5.33398 17.2723 17.2731 5.33325 32.0007 5.33325C46.7282 5.33325 58.6673 17.2723 58.6673 31.9999ZM23.9197 23.919C24.7007 23.1379 25.967 23.1379 26.7481 23.919L32.0006 29.1715L37.253 23.919C38.034 23.138 39.3004 23.138 40.0814 23.919C40.8625 24.7001 40.8625 25.9664 40.0814 26.7475L34.829 31.9999L40.0814 37.2523C40.8624 38.0333 40.8624 39.2996 40.0814 40.0807C39.3003 40.8617 38.034 40.8617 37.2529 40.0807L32.0006 34.8283L26.7481 40.0807C25.9671 40.8618 24.7008 40.8618 23.9197 40.0807C23.1387 39.2997 23.1387 38.0334 23.9197 37.2523L29.1721 31.9999L23.9197 26.7474C23.1386 25.9664 23.1386 24.7 23.9197 23.919Z" fill="#71BF45"/>
</svg>
