<svg width="65" height="64" viewBox="0 0 65 64" fill="none" xmlns="http://www.w3.org/2000/svg">
<path fill-rule="evenodd" clip-rule="evenodd" d="M48.1295 8.4348C48.2698 8.48167 48.4121 8.52917 48.5562 8.57723L51.7617 9.64572C52.9967 10.0573 54.0791 10.418 54.9379 10.8175C55.8663 11.2494 56.717 11.8057 57.3675 12.7081C58.0179 13.6105 58.2766 14.5936 58.3927 15.6109C58.5002 16.5519 58.5001 17.6929 58.5 18.9946V40.8948C58.5001 42.7574 58.5001 44.3281 58.3558 45.5699C58.2057 46.86 57.8695 48.1354 56.9295 49.1642C56.3718 49.7745 55.6941 50.2629 54.9388 50.5989C53.6656 51.1654 52.3493 51.0811 51.0779 50.8154C49.8542 50.5597 48.3641 50.063 46.5972 49.4739L46.4835 49.436C43.4953 48.44 42.4714 48.1297 41.4773 48.1636C41.0812 48.1771 40.6875 48.2299 40.3018 48.321C39.3338 48.5498 38.4276 49.1186 35.8068 50.8658L32.1205 53.3234C31.994 53.4077 31.8693 53.491 31.7462 53.5731C28.9155 55.4625 26.9468 56.7766 24.6453 57.0848C22.3438 57.393 20.0987 56.6432 16.8705 55.5652C16.7302 55.5183 16.588 55.4708 16.4438 55.4228L13.2382 54.3543C12.0033 53.9427 10.9209 53.582 10.0621 53.1825C9.13376 52.7506 8.28297 52.1943 7.63256 51.2919C6.98214 50.3895 6.72344 49.4064 6.6073 48.3892C6.49986 47.4481 6.49993 46.3072 6.5 45.0054L6.50001 23.1052C6.49994 21.2427 6.49988 19.6719 6.64427 18.4301C6.79428 17.14 7.13053 15.8646 8.07057 14.8358C8.62818 14.2255 9.30589 13.7371 10.0612 13.4011C11.3345 12.8346 12.6507 12.9189 13.9221 13.1846C15.1458 13.4403 16.6359 13.9371 18.4028 14.5261L18.5165 14.564C21.5047 15.56 22.5286 15.8704 23.5227 15.8364C23.9188 15.8229 24.3125 15.7702 24.6982 15.679C25.6662 15.4502 26.5724 14.8814 29.1932 13.1342L32.8795 10.6766C33.006 10.5923 33.1307 10.5091 33.2538 10.4269C36.0845 8.5375 38.0532 7.22346 40.3547 6.91525C42.6563 6.60703 44.9013 7.35677 48.1295 8.4348ZM42.5 10.9478V44.2113C43.9285 44.3662 45.4328 44.8683 47.4148 45.53C47.5245 45.5666 47.6357 45.6037 47.7484 45.6413C49.6595 46.2783 50.9275 46.6976 51.8961 46.9C52.8432 47.0979 53.168 47.0088 53.313 46.9443C53.5647 46.8323 53.7906 46.6695 53.9765 46.466C54.0835 46.3489 54.2708 46.069 54.3825 45.1079C54.4968 44.125 54.5 42.7895 54.5 40.775V19.0994C54.5 17.6619 54.497 16.7517 54.4185 16.0646C54.3459 15.4285 54.2271 15.1921 54.1225 15.047C54.0179 14.9018 53.8311 14.7143 53.2507 14.4443C52.6236 14.1526 51.7611 13.8619 50.3974 13.4073L47.2913 12.372C44.9277 11.5841 43.5254 11.1358 42.5 10.9478ZM38.5 44.6923V11.8223C37.6701 12.3019 36.6058 12.9998 35.0983 14.0048L31.412 16.4624C31.3131 16.5283 31.2157 16.5933 31.1194 16.6575C29.2841 17.8823 27.9159 18.7953 26.5 19.3077V52.1777C27.3299 51.6982 28.3942 51.0002 29.9017 49.9952L33.588 47.5376C33.6869 47.4717 33.7843 47.4067 33.8805 47.3425C35.7159 46.1177 37.0841 45.2048 38.5 44.6923ZM22.5 53.0522V19.7887C21.0715 19.6338 19.5672 19.1317 17.5851 18.47C17.4754 18.4334 17.3643 18.3963 17.2516 18.3587C15.3405 17.7217 14.0725 17.3024 13.1039 17.1C12.1568 16.9021 11.832 16.9912 11.6871 17.0557C11.4353 17.1677 11.2094 17.3305 11.0235 17.534C10.9165 17.6511 10.7293 17.931 10.6175 18.8921C10.5032 19.875 10.5 21.2106 10.5 23.225V44.9006C10.5 46.3381 10.503 47.2483 10.5815 47.9354C10.6541 48.5715 10.7729 48.8079 10.8775 48.9531C10.9821 49.0982 11.1689 49.2857 11.7493 49.5557C12.3764 49.8474 13.2389 50.1381 14.6026 50.5927L17.7087 51.6281C20.0723 52.4159 21.4746 52.8642 22.5 53.0522Z" fill="white"/>
</svg>
