<svg width="64" height="64" viewBox="0 0 64 64" fill="none" xmlns="http://www.w3.org/2000/svg">
<path fill-rule="evenodd" clip-rule="evenodd" d="M47.6295 8.43455C47.7698 8.48143 47.9121 8.52893 48.0562 8.57698L51.2617 9.64548C52.4967 10.0571 53.5791 10.4178 54.4379 10.8173C55.3663 11.2492 56.217 11.8055 56.8675 12.7079C57.5179 13.6103 57.7766 14.5933 57.8927 15.6106C58.0002 16.5516 58.0001 17.6926 58 18.9944V40.8946C58.0001 42.7571 58.0001 44.3279 57.8558 45.5696C57.7057 46.8597 57.3695 48.1351 56.4295 49.164C55.8718 49.7742 55.1941 50.2627 54.4388 50.5987C53.1656 51.1652 51.8493 51.0808 50.5779 50.8152C49.3542 50.5595 47.8641 50.0627 46.0972 49.4737L45.9835 49.4358C42.9953 48.4397 41.9714 48.1294 40.9773 48.1634C40.5812 48.1769 40.1875 48.2296 39.8018 48.3208C38.8338 48.5496 37.9276 49.1184 35.3068 50.8656L31.6205 53.3231C31.494 53.4075 31.3693 53.4907 31.2462 53.5729C28.4155 55.4623 26.4468 56.7763 24.1453 57.0845C21.8438 57.3927 19.5987 56.643 16.3705 55.565C16.2302 55.5181 16.088 55.4706 15.9438 55.4225L12.7382 54.354C11.5033 53.9425 10.4209 53.5817 9.56213 53.1822C8.63376 52.7504 7.78297 52.1941 7.13256 51.2917C6.48214 50.3893 6.22344 49.4062 6.1073 48.3889C5.99986 47.4479 5.99993 46.3069 6 45.0052L6.00001 23.1049C5.99994 21.2424 5.99988 19.6716 6.14427 18.4299C6.29428 17.1398 6.63053 15.8644 7.57057 14.8356C8.12818 14.2253 8.80589 13.7368 9.56118 13.4008C10.8345 12.8344 12.1507 12.9187 13.4221 13.1843C14.6458 13.44 16.1359 13.9368 17.9028 14.5258L18.0165 14.5637C21.0047 15.5598 22.0286 15.8701 23.0227 15.8362C23.4188 15.8226 23.8125 15.7699 24.1982 15.6788C25.1662 15.4499 26.0724 14.8811 28.6932 13.1339L32.3795 10.6764C32.506 10.5921 32.6307 10.5088 32.7538 10.4267C35.5845 8.53726 37.5532 7.22322 39.8547 6.915C42.1563 6.60679 44.4013 7.35653 47.6295 8.43455ZM42 10.9476V44.2111C43.4285 44.366 44.9328 44.8681 46.9148 45.5297C47.0245 45.5664 47.1357 45.6035 47.2484 45.6411C49.1595 46.2781 50.4275 46.6974 51.3961 46.8998C52.3432 47.0977 52.668 47.0085 52.813 46.9441C53.0647 46.8321 53.2906 46.6692 53.4765 46.4658C53.5835 46.3487 53.7708 46.0688 53.8825 45.1077C53.9968 44.1248 54 42.7892 54 40.7748V19.0992C54 17.6617 53.997 16.7515 53.9185 16.0643C53.8459 15.4283 53.7271 15.1919 53.6225 15.0467C53.5179 14.9016 53.3311 14.7141 52.7507 14.4441C52.1236 14.1523 51.2611 13.8616 49.8974 13.4071L46.7913 12.3717C44.4277 11.5839 43.0254 11.1356 42 10.9476ZM38 44.6921V11.8221C37.1701 12.3016 36.1058 12.9996 34.5983 14.0046L30.912 16.4621C30.8131 16.528 30.7157 16.5931 30.6194 16.6573C28.7841 17.882 27.4159 18.795 26 19.3075V52.1774C26.8299 51.6979 27.8942 50.9999 29.4017 49.9949L33.088 47.5374C33.1869 47.4715 33.2843 47.4064 33.3805 47.3423C35.2159 46.1175 36.5841 45.2045 38 44.6921ZM22 53.0519V19.7884C20.5715 19.6336 19.0672 19.1314 17.0851 18.4698C16.9754 18.4331 16.8643 18.396 16.7516 18.3585C14.8405 17.7215 13.5725 17.3022 12.6039 17.0998C11.6568 16.9019 11.332 16.991 11.1871 17.0555C10.9353 17.1675 10.7094 17.3303 10.5235 17.5337C10.4165 17.6508 10.2293 17.9308 10.1175 18.8919C10.0032 19.8748 10 21.2103 10 23.2247V44.9004C10 46.3379 10.003 47.2481 10.0815 47.9352C10.1541 48.5712 10.2729 48.8077 10.3775 48.9528C10.4821 49.098 10.6689 49.2854 11.2493 49.5555C11.8764 49.8472 12.7389 50.1379 14.1026 50.5925L17.2087 51.6278C19.5723 52.4157 20.9746 52.864 22 53.0519Z" fill="#505050"/>
</svg>
