<svg width="64" height="64" viewBox="0 0 64 64" fill="none" xmlns="http://www.w3.org/2000/svg">
<path d="M8 56.0002H56M10.6667 48.0002H53.3333M16 26.6669V48.0002M26.6667 26.6669V48.0002M37.3333 26.6669V48.0002M48 26.6669V48.0002M10.6667 25.3335V22.7869C10.6668 22.3412 10.7787 21.9026 10.9921 21.5113C11.2054 21.12 11.5135 20.7884 11.888 20.5469L30.5547 8.49353C30.9855 8.21566 31.4873 8.06787 32 8.06787C32.5127 8.06787 33.0145 8.21566 33.4453 8.49353L52.112 20.5469C52.4865 20.7884 52.7946 21.12 53.0079 21.5113C53.2213 21.9026 53.3332 22.3412 53.3333 22.7869V25.3335C53.3333 25.6872 53.1929 26.0263 52.9428 26.2763C52.6928 26.5264 52.3536 26.6669 52 26.6669H12C11.6464 26.6669 11.3072 26.5264 11.0572 26.2763C10.8071 26.0263 10.6667 25.6872 10.6667 25.3335Z" stroke="white" stroke-width="5.33333" stroke-linecap="round"/>
</svg>
