<svg width="65" height="64" viewBox="0 0 65 64" fill="none" xmlns="http://www.w3.org/2000/svg">
<path fill-rule="evenodd" clip-rule="evenodd" d="M32.5002 7.33325C30.6592 7.33325 29.1668 8.82564 29.1668 10.6666C29.1668 12.5075 30.6592 13.9999 32.5002 13.9999C34.3411 13.9999 35.8335 12.5075 35.8335 10.6666C35.8335 8.82564 34.3411 7.33325 32.5002 7.33325ZM25.1668 10.6666C25.1668 6.6165 28.4501 3.33325 32.5002 3.33325C36.5503 3.33325 39.8335 6.6165 39.8335 10.6666C39.8335 14.7167 36.5503 17.9999 32.5002 17.9999C28.4501 17.9999 25.1668 14.7167 25.1668 10.6666ZM45.8052 19.1034C49.5941 18.2915 53.1668 21.1798 53.1668 25.0547C53.1668 27.6744 51.4905 30.0002 49.0052 30.8287L43.2044 32.7623C42.8388 32.8841 42.6201 32.9574 42.4579 33.0187C42.3554 33.0575 42.3122 33.0783 42.3017 33.0835C42.0828 33.2217 41.9636 33.4742 41.9961 33.731C41.9988 33.7424 42.0102 33.7889 42.0455 33.8928C42.1012 34.057 42.1837 34.2723 42.322 34.632L45.6468 43.2764C47.1403 47.1597 44.2739 51.3333 40.1133 51.3333C37.9858 51.3333 36.0214 50.1933 34.9659 48.3461L32.5002 44.031L30.0344 48.3461C28.9789 50.1933 27.0145 51.3333 24.887 51.3333C20.7264 51.3333 17.86 47.1597 19.3536 43.2764L22.6783 34.632C22.8167 34.2723 22.8991 34.057 22.9548 33.8928C22.9901 33.7889 23.0016 33.7424 23.0042 33.731C23.0367 33.4742 22.9176 33.2217 22.6987 33.0835C22.6882 33.0783 22.6451 33.0576 22.5424 33.0187C22.3802 32.9574 22.1615 32.8841 21.7959 32.7623L15.9952 30.8287C13.5099 30.0002 11.8335 27.6744 11.8335 25.0547C11.8335 21.1798 15.4063 18.2915 19.1951 19.1034L24.2553 20.1878C24.5393 20.2486 24.672 20.277 24.8029 20.3041C29.8807 21.3544 35.1197 21.3544 40.1974 20.3041C40.3284 20.277 40.461 20.2486 40.7451 20.1878L45.8052 19.1034ZM49.1668 25.0547C49.1668 23.7264 47.9421 22.7363 46.6434 23.0146L41.5758 24.1005C41.3018 24.1593 41.1544 24.1908 41.0077 24.2212C35.3954 25.3821 29.6049 25.3821 23.9927 24.2212C23.846 24.1909 23.6988 24.1593 23.4252 24.1007L18.357 23.0146C17.0582 22.7363 15.8335 23.7264 15.8335 25.0547C15.8335 25.9527 16.4081 26.7499 17.2601 27.0339L23.0609 28.9675C23.1092 28.9836 23.1578 28.9997 23.2066 29.0159C23.7548 29.1976 24.3244 29.3863 24.794 29.6762C26.3649 30.6459 27.2165 32.4505 26.9664 34.2795C26.8917 34.8263 26.6753 35.386 26.467 35.9247C26.4485 35.9726 26.43 36.0204 26.4117 36.0679L23.0869 44.7123C22.6011 45.9756 23.5335 47.3333 24.887 47.3333C25.5791 47.3333 26.2181 46.9624 26.5615 46.3615L30.7637 39.0076C31.1198 38.3845 31.7824 37.9999 32.5002 37.9999C33.2179 37.9999 33.8806 38.3845 34.2366 39.0076L38.4389 46.3615C38.7822 46.9624 39.4213 47.3333 40.1133 47.3333C41.4668 47.3333 42.3993 45.9756 41.9134 44.7123L38.5886 36.0679C38.5703 36.0204 38.5519 35.9726 38.5333 35.9247C38.3251 35.386 38.1087 34.8263 38.0339 34.2795C37.7838 32.4505 38.6354 30.6459 40.2063 29.6762C40.6759 29.3863 41.2455 29.1976 41.7938 29.0159C41.8425 28.9997 41.8911 28.9836 41.9395 28.9675L47.7403 27.0339C48.5922 26.7499 49.1668 25.9527 49.1668 25.0547ZM14.4105 37.7682C14.9067 38.755 14.5089 39.9573 13.5221 40.4534C9.46628 42.4926 7.8335 44.7864 7.8335 46.6666C7.8335 48.7031 9.76419 51.2128 14.4647 53.328C18.9775 55.3588 25.3522 56.6666 32.5002 56.6666C39.6481 56.6666 46.0228 55.3588 50.5356 53.328C55.2361 51.2128 57.1668 48.7031 57.1668 46.6666C57.1668 44.7864 55.534 42.4926 51.4783 40.4534C50.4914 39.9573 50.0936 38.755 50.5898 37.7682C51.086 36.7813 52.2882 36.3836 53.2751 36.8797C57.6644 39.0866 61.1668 42.4 61.1668 46.6666C61.1668 51.2575 57.128 54.7478 52.1771 56.9757C47.0384 59.2881 40.0798 60.6666 32.5002 60.6666C24.9205 60.6666 17.9619 59.2881 12.8233 56.9757C7.87234 54.7478 3.8335 51.2575 3.8335 46.6666C3.8335 42.4 7.33589 39.0866 11.7253 36.8797C12.7121 36.3836 13.9144 36.7813 14.4105 37.7682Z" fill="white"/>
</svg>
