<svg width="121" height="120" viewBox="0 0 121 120" fill="none" xmlns="http://www.w3.org/2000/svg">
<mask id="path-2-outside-1_250_3193" maskUnits="userSpaceOnUse" x="13.6504" y="17.4829" width="102" height="88" fill="black">
<rect fill="white" x="13.6504" y="17.4829" width="102" height="88"/>
<path d="M36.2646 39.7739C39.4553 36.5849 44.6262 36.5847 47.8164 39.7729L60.6963 52.645L80.0371 39.4253C82.4196 37.7969 85.6232 38.0947 87.6641 40.1343L108.585 61.0415C114.238 66.6911 114.556 75.7512 109.315 81.7866L95.8896 97.2456C91.8974 101.842 85.5505 103.618 79.7529 101.762L67.6006 97.8716L48.3086 91.8384C46.0835 91.1423 44.4636 89.2195 44.1543 86.9087L43.3643 81.0034C43.1738 79.5793 44.1291 78.2735 45.5068 77.9976L45.7871 77.9575L59.7803 76.6362L36.0557 51.1138C33.0627 47.8939 33.155 42.8825 36.2646 39.7739ZM46.4023 41.187C43.993 38.7793 40.0873 38.7795 37.6777 41.188L37.4648 41.4126C35.3279 43.7712 35.3308 47.3968 37.5205 49.7524L61.2451 75.2739L61.3457 75.3901C62.3267 76.6107 61.5683 78.4771 59.9688 78.6284L45.9746 79.9478L45.9014 79.9585C45.5445 80.0303 45.2974 80.3688 45.3467 80.7378L46.1367 86.6431C46.343 88.1835 47.4229 89.4651 48.9062 89.9292L68.2041 95.9653L68.2109 95.9673L80.3633 99.8589C85.399 101.471 90.9123 99.9275 94.3799 95.9351L107.806 80.4761C112.358 75.2337 112.08 67.3638 107.17 62.4565L86.25 41.5483C84.8894 40.1888 82.7533 39.9901 81.165 41.0757L61.1416 54.7642C60.7693 55.0187 60.276 54.9912 59.9355 54.7065L59.8701 54.646L46.4023 41.187ZM27.6299 62.2144C28.0901 62.5188 28.2171 63.1395 27.9131 63.6001C27.6088 64.0607 26.9881 64.1872 26.5273 63.8833L27.6299 62.2144ZM39.8633 19.4829C47.2957 19.4831 53.9477 22.831 58.3877 28.0972C58.7433 28.5192 58.6893 29.1503 58.2676 29.5063C57.8455 29.8622 57.2145 29.809 56.8584 29.3872C52.7823 24.5526 46.6817 21.483 39.8633 21.4829C27.5949 21.483 17.6505 31.4224 17.6504 43.6821C17.6504 51.4234 21.6148 58.24 27.6299 62.2144L27.0781 63.0483L26.5273 63.8833C19.976 59.5547 15.6504 52.1234 15.6504 43.6821C15.6505 30.3168 26.4915 19.483 39.8633 19.4829Z"/>
</mask>
<path d="M36.2646 39.7739C39.4553 36.5849 44.6262 36.5847 47.8164 39.7729L60.6963 52.645L80.0371 39.4253C82.4196 37.7969 85.6232 38.0947 87.6641 40.1343L108.585 61.0415C114.238 66.6911 114.556 75.7512 109.315 81.7866L95.8896 97.2456C91.8974 101.842 85.5505 103.618 79.7529 101.762L67.6006 97.8716L48.3086 91.8384C46.0835 91.1423 44.4636 89.2195 44.1543 86.9087L43.3643 81.0034C43.1738 79.5793 44.1291 78.2735 45.5068 77.9976L45.7871 77.9575L59.7803 76.6362L36.0557 51.1138C33.0627 47.8939 33.155 42.8825 36.2646 39.7739ZM46.4023 41.187C43.993 38.7793 40.0873 38.7795 37.6777 41.188L37.4648 41.4126C35.3279 43.7712 35.3308 47.3968 37.5205 49.7524L61.2451 75.2739L61.3457 75.3901C62.3267 76.6107 61.5683 78.4771 59.9688 78.6284L45.9746 79.9478L45.9014 79.9585C45.5445 80.0303 45.2974 80.3688 45.3467 80.7378L46.1367 86.6431C46.343 88.1835 47.4229 89.4651 48.9062 89.9292L68.2041 95.9653L68.2109 95.9673L80.3633 99.8589C85.399 101.471 90.9123 99.9275 94.3799 95.9351L107.806 80.4761C112.358 75.2337 112.08 67.3638 107.17 62.4565L86.25 41.5483C84.8894 40.1888 82.7533 39.9901 81.165 41.0757L61.1416 54.7642C60.7693 55.0187 60.276 54.9912 59.9355 54.7065L59.8701 54.646L46.4023 41.187ZM27.6299 62.2144C28.0901 62.5188 28.2171 63.1395 27.9131 63.6001C27.6088 64.0607 26.9881 64.1872 26.5273 63.8833L27.6299 62.2144ZM39.8633 19.4829C47.2957 19.4831 53.9477 22.831 58.3877 28.0972C58.7433 28.5192 58.6893 29.1503 58.2676 29.5063C57.8455 29.8622 57.2145 29.809 56.8584 29.3872C52.7823 24.5526 46.6817 21.483 39.8633 21.4829C27.5949 21.483 17.6505 31.4224 17.6504 43.6821C17.6504 51.4234 21.6148 58.24 27.6299 62.2144L27.0781 63.0483L26.5273 63.8833C19.976 59.5547 15.6504 52.1234 15.6504 43.6821C15.6505 30.3168 26.4915 19.483 39.8633 19.4829Z" fill="white"/>
<path d="M36.2646 39.7739L34.8508 38.3594L34.8507 38.3595L36.2646 39.7739ZM47.8164 39.7729L49.2302 38.3583L49.2302 38.3583L47.8164 39.7729ZM60.6963 52.645L59.2825 54.0597L60.4556 55.2321L61.8249 54.2962L60.6963 52.645ZM80.0371 39.4253L78.9086 37.7741L78.9085 37.7741L80.0371 39.4253ZM87.6641 40.1343L86.2503 41.5489L86.2503 41.549L87.6641 40.1343ZM108.585 61.0415L109.999 59.6269L109.999 59.6268L108.585 61.0415ZM109.315 81.7866L110.825 83.098L110.826 83.098L109.315 81.7866ZM95.8896 97.2456L97.3996 98.5571L97.3997 98.557L95.8896 97.2456ZM79.7529 101.762L80.3628 99.8574H80.3627L79.7529 101.762ZM67.6006 97.8716L68.2104 95.9668L68.1975 95.9627L67.6006 97.8716ZM48.3086 91.8384L47.7114 93.7471L47.7116 93.7472L48.3086 91.8384ZM44.1543 86.9087L42.172 87.1739L42.172 87.174L44.1543 86.9087ZM43.3643 81.0034L41.3819 81.2685L41.3819 81.2686L43.3643 81.0034ZM45.5068 77.9976L45.224 76.0177L45.1688 76.0256L45.114 76.0365L45.5068 77.9976ZM45.7871 77.9575L45.5991 75.9664L45.5515 75.9709L45.5043 75.9776L45.7871 77.9575ZM59.7803 76.6362L59.9683 78.6274L64.0073 78.246L61.2451 75.2746L59.7803 76.6362ZM36.0557 51.1138L34.5908 52.4754L34.5908 52.4754L36.0557 51.1138ZM46.4023 41.187L47.8161 39.7723L47.8161 39.7723L46.4023 41.187ZM37.6777 41.188L36.2638 39.7735L36.2447 39.7926L36.2262 39.8121L37.6777 41.188ZM37.4648 41.4126L36.0133 40.0368L35.9978 40.0531L35.9827 40.0697L37.4648 41.4126ZM37.5205 49.7524L36.0556 51.1141L36.0557 51.1141L37.5205 49.7524ZM61.2451 75.2739L62.7573 73.965L62.7341 73.9382L62.71 73.9122L61.2451 75.2739ZM61.3457 75.3901L62.9046 74.1372L62.8818 74.1088L62.8579 74.0812L61.3457 75.3901ZM59.9688 78.6284L60.1565 80.6196L60.1572 80.6195L59.9688 78.6284ZM45.9746 79.9478L45.7869 77.9566L45.7355 77.9614L45.6844 77.9689L45.9746 79.9478ZM45.9014 79.9585L45.6111 77.9797L45.5588 77.9873L45.507 77.9978L45.9014 79.9585ZM45.3467 80.7378L43.3643 81.0027L43.3643 81.003L45.3467 80.7378ZM46.1367 86.6431L44.1544 86.9083L44.1544 86.9085L46.1367 86.6431ZM48.9062 89.9292L48.3091 91.838L48.3092 91.838L48.9062 89.9292ZM68.2041 95.9653L67.6071 97.8741L67.6308 97.8816L67.6547 97.8884L68.2041 95.9653ZM68.2109 95.9673L68.8209 94.0626L68.7908 94.0529L68.7604 94.0442L68.2109 95.9673ZM80.3633 99.8589L79.7533 101.764L79.7535 101.764L80.3633 99.8589ZM94.3799 95.9351L95.8899 97.2465L95.8899 97.2465L94.3799 95.9351ZM107.806 80.4761L109.316 81.7875L109.316 81.7874L107.806 80.4761ZM107.17 62.4565L105.756 63.8712L105.756 63.8712L107.17 62.4565ZM86.25 41.5483L87.6638 40.1337L87.6637 40.1336L86.25 41.5483ZM81.165 41.0757L80.0365 39.4245L80.0363 39.4246L81.165 41.0757ZM61.1416 54.7642L62.2703 56.4152L62.2703 56.4152L61.1416 54.7642ZM59.9355 54.7065L58.5772 56.1745L58.614 56.2085L58.6525 56.2407L59.9355 54.7065ZM59.8701 54.646L58.4564 56.0607L58.4835 56.0878L58.5117 56.1139L59.8701 54.646ZM27.6299 62.2144L28.7334 60.5463L28.7324 60.5457L27.6299 62.2144ZM27.9131 63.6001L29.5818 64.7026L29.5823 64.7018L27.9131 63.6001ZM26.5273 63.8833L25.4248 65.552L25.426 65.5528L26.5273 63.8833ZM39.8633 19.4829L39.8633 17.4829H39.8633L39.8633 19.4829ZM58.3877 28.0972L59.9171 26.8084L59.9168 26.808L58.3877 28.0972ZM58.2676 29.5063L59.5567 31.0354L59.5577 31.0346L58.2676 29.5063ZM56.8584 29.3872L55.3293 30.6764L55.3301 30.6773L56.8584 29.3872ZM39.8633 21.4829L39.8633 19.4829L39.8633 19.4829L39.8633 21.4829ZM17.6504 43.6821L15.6504 43.6821V43.6821H17.6504ZM27.0781 63.0483L25.4101 61.9448L25.4086 61.9471L27.0781 63.0483ZM15.6504 43.6821L13.6504 43.6821V43.6821H15.6504ZM36.2646 39.7739L37.6785 41.1885C40.0883 38.7799 43.9935 38.78 46.4026 41.1876L47.8164 39.7729L49.2302 38.3583C45.2589 34.3895 38.8222 34.3898 34.8508 38.3594L36.2646 39.7739ZM47.8164 39.7729L46.4026 41.1876L59.2825 54.0597L60.6963 52.645L62.1101 51.2304L49.2302 38.3583L47.8164 39.7729ZM60.6963 52.645L61.8249 54.2962L81.1657 41.0764L80.0371 39.4253L78.9085 37.7741L59.5677 50.9939L60.6963 52.645ZM80.0371 39.4253L81.1657 41.0765C82.7543 39.9907 84.8899 40.1895 86.2503 41.5489L87.6641 40.1343L89.0778 38.7196C86.3565 36 82.0849 35.6031 78.9086 37.7741L80.0371 39.4253ZM87.6641 40.1343L86.2503 41.549L107.171 62.4562L108.585 61.0415L109.999 59.6268L89.0778 38.7196L87.6641 40.1343ZM108.585 61.0415L107.171 62.4561C112.081 67.3629 112.358 75.2326 107.805 80.4753L109.315 81.7866L110.826 83.098C116.755 76.2699 116.395 66.0192 109.999 59.6269L108.585 61.0415ZM109.315 81.7866L107.805 80.4752L94.3796 95.9342L95.8896 97.2456L97.3997 98.557L110.825 83.098L109.315 81.7866ZM95.8896 97.2456L94.3797 95.9342C90.9119 99.9269 85.3987 101.47 80.3628 99.8574L79.7529 101.762L79.1431 103.667C85.7024 105.767 92.883 103.757 97.3996 98.5571L95.8896 97.2456ZM79.7529 101.762L80.3627 99.8574L68.2104 95.9668L67.6006 97.8716L66.9908 99.7763L79.1431 103.667L79.7529 101.762ZM67.6006 97.8716L68.1975 95.9627L48.9055 89.9295L48.3086 91.8384L47.7116 93.7472L67.0036 99.7804L67.6006 97.8716ZM48.3086 91.8384L48.9057 89.9296C47.4228 89.4657 46.3428 88.1841 46.1366 86.6434L44.1543 86.9087L42.172 87.174C42.5843 90.2549 44.7441 92.8188 47.7114 93.7471L48.3086 91.8384ZM44.1543 86.9087L46.1366 86.6435L45.3466 80.7382L43.3643 81.0034L41.3819 81.2686L42.172 87.1739L44.1543 86.9087ZM43.3643 81.0034L45.3466 80.7383C45.2973 80.3699 45.5451 80.0296 45.8996 79.9586L45.5068 77.9976L45.114 76.0365C42.7131 76.5174 41.0502 78.7887 41.3819 81.2685L43.3643 81.0034ZM45.5068 77.9976L45.7897 79.9775L46.07 79.9374L45.7871 77.9575L45.5043 75.9776L45.224 76.0177L45.5068 77.9976ZM45.7871 77.9575L45.9751 79.9487L59.9683 78.6274L59.7803 76.6362L59.5923 74.6451L45.5991 75.9664L45.7871 77.9575ZM59.7803 76.6362L61.2451 75.2746L37.5205 49.7521L36.0557 51.1138L34.5908 52.4754L58.3154 77.9979L59.7803 76.6362ZM36.0557 51.1138L37.5205 49.7521C35.2605 47.3208 35.3299 43.5363 37.6786 41.1884L36.2646 39.7739L34.8507 38.3595C30.98 42.2287 30.8648 48.467 34.5908 52.4754L36.0557 51.1138ZM46.4023 41.187L47.8161 39.7723C44.6257 36.5841 39.4542 36.5845 36.2638 39.7735L37.6777 41.188L39.0917 42.6025C40.7203 40.9745 43.3604 40.9746 44.9886 42.6017L46.4023 41.187ZM37.6777 41.188L36.2262 39.8121L36.0133 40.0368L37.4648 41.4126L38.9164 42.7884L39.1293 42.5638L37.6777 41.188ZM37.4648 41.4126L35.9827 40.0697C33.1523 43.1937 33.1555 47.9941 36.0556 51.1141L37.5205 49.7524L38.9854 48.3908C37.5062 46.7994 37.5035 44.3487 38.947 42.7555L37.4648 41.4126ZM37.5205 49.7524L36.0557 51.1141L59.7803 76.6356L61.2451 75.2739L62.71 73.9122L38.9853 48.3907L37.5205 49.7524ZM61.2451 75.2739L59.7329 76.5828L59.8335 76.699L61.3457 75.3901L62.8579 74.0812L62.7573 73.965L61.2451 75.2739ZM61.3457 75.3901L59.7868 76.643C59.7893 76.6462 59.79 76.6475 59.7897 76.647C59.7894 76.6464 59.7885 76.6449 59.7875 76.6424C59.7853 76.637 59.784 76.6317 59.7836 76.6279C59.7832 76.6246 59.7836 76.6242 59.7832 76.6268C59.7828 76.6296 59.7818 76.6338 59.7799 76.6384C59.7779 76.643 59.776 76.6459 59.7751 76.647C59.7744 76.6479 59.7756 76.6462 59.7794 76.6433C59.7812 76.6419 59.7835 76.6404 59.786 76.6389C59.7886 76.6375 59.7909 76.6364 59.7926 76.6357C59.7944 76.635 59.7948 76.635 59.7934 76.6354C59.7921 76.6357 59.7879 76.6366 59.7803 76.6373L59.9688 78.6284L60.1572 80.6195C63.3618 80.3163 64.8709 76.5837 62.9046 74.1372L61.3457 75.3901ZM59.9688 78.6284L59.781 76.6372L45.7869 77.9566L45.9746 79.9478L46.1623 81.9389L60.1565 80.6196L59.9688 78.6284ZM45.9746 79.9478L45.6844 77.9689L45.6111 77.9797L45.9014 79.9585L46.1916 81.9373L46.2648 81.9266L45.9746 79.9478ZM45.9014 79.9585L45.507 77.9978C44.1262 78.2755 43.1743 79.5802 43.3643 81.0027L45.3467 80.7378L47.3291 80.4729C47.4205 81.1574 46.9628 81.785 46.2958 81.9192L45.9014 79.9585ZM45.3467 80.7378L43.3643 81.003L44.1544 86.9083L46.1367 86.6431L48.1191 86.3779L47.329 80.4726L45.3467 80.7378ZM46.1367 86.6431L44.1544 86.9085C44.4638 89.2191 46.0837 91.1417 48.3091 91.838L48.9062 89.9292L49.5034 88.0204C48.7621 87.7885 48.2222 87.1479 48.119 86.3777L46.1367 86.6431ZM48.9062 89.9292L48.3092 91.838L67.6071 97.8741L68.2041 95.9653L68.8012 94.0565L49.5033 88.0204L48.9062 89.9292ZM68.2041 95.9653L67.6547 97.8884L67.6615 97.8903L68.2109 95.9673L68.7604 94.0442L68.7535 94.0423L68.2041 95.9653ZM68.2109 95.9673L67.601 97.872L79.7533 101.764L80.3633 99.8589L80.9732 97.9542L68.8209 94.0626L68.2109 95.9673ZM80.3633 99.8589L79.7535 101.764C85.551 103.62 91.8979 101.843 95.8899 97.2465L94.3799 95.9351L92.8699 94.6236C89.9266 98.0124 85.247 99.3223 80.9731 97.9541L80.3633 99.8589ZM94.3799 95.9351L95.8899 97.2465L109.316 81.7875L107.806 80.4761L106.296 79.1647L92.8699 94.6236L94.3799 95.9351ZM107.806 80.4761L109.316 81.7874C114.557 75.7521 114.237 66.6917 108.584 61.0419L107.17 62.4565L105.756 63.8712C109.923 68.036 110.159 74.7152 106.296 79.1647L107.806 80.4761ZM107.17 62.4565L108.584 61.0419L87.6638 40.1337L86.25 41.5483L84.8362 42.9629L105.756 63.8712L107.17 62.4565ZM86.25 41.5483L87.6637 40.1336C85.6227 38.0942 82.4187 37.7963 80.0365 39.4245L81.165 41.0757L82.2936 42.7268C83.0879 42.1839 84.1561 42.2834 84.8363 42.9631L86.25 41.5483ZM81.165 41.0757L80.0363 39.4246L60.0129 53.1131L61.1416 54.7642L62.2703 56.4152L82.2937 42.7267L81.165 41.0757ZM61.1416 54.7642L60.0129 53.1131C60.3844 52.8592 60.8761 52.8859 61.2186 53.1724L59.9355 54.7065L58.6525 56.2407C59.6759 57.0966 61.1542 57.1782 62.2703 56.4152L61.1416 54.7642ZM59.9355 54.7065L61.2939 53.2386L61.2285 53.1781L59.8701 54.646L58.5117 56.1139L58.5772 56.1745L59.9355 54.7065ZM59.8701 54.646L61.2839 53.2313L47.8161 39.7723L46.4023 41.187L44.9886 42.6017L58.4564 56.0607L59.8701 54.646ZM27.6299 62.2144L26.5264 63.8824C26.0667 63.5782 25.9395 62.9595 26.2439 62.4984L27.9131 63.6001L29.5823 64.7018C30.4947 63.3195 30.1136 61.4594 28.7334 60.5463L27.6299 62.2144ZM27.9131 63.6001L26.2444 62.4976C26.5496 62.0357 27.1692 61.9108 27.6287 62.2138L26.5273 63.8833L25.426 65.5528C26.8069 66.4637 28.6679 66.0857 29.5818 64.7026L27.9131 63.6001ZM26.5273 63.8833L28.1961 64.9857L29.2986 63.3168L27.6299 62.2144L25.9611 61.1119L24.8586 62.7809L26.5273 63.8833ZM39.8633 19.4829L39.8632 21.4829C46.6817 21.483 52.7826 24.5518 56.8586 29.3863L58.3877 28.0972L59.9168 26.808C55.1128 21.1101 47.9097 17.4831 39.8633 17.4829L39.8633 19.4829ZM58.3877 28.0972L56.8583 29.3859C56.5016 28.9626 56.5569 28.3331 56.9774 27.9781L58.2676 29.5063L59.5577 31.0346C60.8217 29.9675 60.9851 28.0759 59.9171 26.8084L58.3877 28.0972ZM58.2676 29.5063L56.9784 27.9773C57.3995 27.6223 58.0297 27.6742 58.3867 28.0971L56.8584 29.3872L55.3301 30.6773C56.3992 31.9438 58.2915 32.1021 59.5567 31.0354L58.2676 29.5063ZM56.8584 29.3872L58.3875 28.098C53.9474 22.8318 47.2957 19.4831 39.8633 19.4829L39.8633 21.4829L39.8632 23.4829C46.0676 23.483 51.6172 26.2734 55.3293 30.6764L56.8584 29.3872ZM39.8633 21.4829L39.8633 19.4829C26.4914 19.483 15.6505 30.3168 15.6504 43.6821L17.6504 43.6821L19.6504 43.6821C19.6505 32.5281 28.6984 23.483 39.8633 23.4829L39.8633 21.4829ZM17.6504 43.6821H15.6504C15.6504 52.1233 19.9759 59.5544 26.5274 63.883L27.6299 62.2144L28.7324 60.5457C23.2536 56.9257 19.6504 50.7234 19.6504 43.6821H17.6504ZM27.6299 62.2144L25.9619 61.1108L25.4101 61.9448L27.0781 63.0483L28.7461 64.1519L29.2979 63.3179L27.6299 62.2144ZM27.0781 63.0483L25.4086 61.9471L24.8579 62.782L26.5273 63.8833L28.1968 64.9846L28.7476 64.1496L27.0781 63.0483ZM26.5273 63.8833L27.6299 62.2146C21.6146 58.2402 17.6504 51.4232 17.6504 43.6821H15.6504H13.6504C13.6504 52.8236 18.3373 60.8691 25.4248 65.552L26.5273 63.8833ZM15.6504 43.6821L17.6504 43.6821C17.6505 31.4225 27.5949 21.483 39.8633 21.4829L39.8633 19.4829L39.8633 17.4829C25.388 17.483 13.6505 29.2111 13.6504 43.6821L15.6504 43.6821Z" fill="white" mask="url(#path-2-outside-1_250_3193)"/>
</svg>
