<svg width="64" height="64" viewBox="0 0 64 64" fill="none" xmlns="http://www.w3.org/2000/svg">
<path fill-rule="evenodd" clip-rule="evenodd" d="M30.6666 7.3335C17.7799 7.3335 7.33325 17.7802 7.33325 30.6668C7.33325 43.5535 17.7799 54.0002 30.6666 54.0002C43.5532 54.0002 53.9999 43.5535 53.9999 30.6668C53.9999 17.7802 43.5532 7.3335 30.6666 7.3335ZM3.33325 30.6668C3.33325 15.571 15.5708 3.3335 30.6666 3.3335C45.7624 3.3335 57.9999 15.571 57.9999 30.6668C57.9999 37.4949 55.4963 43.7381 51.3569 48.5287L60.0808 57.2526C60.8618 58.0337 60.8618 59.3 60.0808 60.081C59.2998 60.8621 58.0334 60.8621 57.2524 60.081L48.5285 51.3571C43.7379 55.4965 37.4946 58.0002 30.6666 58.0002C15.5708 58.0002 3.33325 45.7626 3.33325 30.6668Z" fill="#505050"/>
</svg>
