<svg width="64" height="64" viewBox="0 0 64 64" fill="none" xmlns="http://www.w3.org/2000/svg">
<path d="M14.0019 32.0835H23.2754V43.095C23.2754 43.6472 23.7231 44.095 24.2754 44.095H39.7265C40.279 44.095 40.7265 43.6472 40.7265 43.095V32.0835H50.0002C50.8835 32.0835 51.333 31.0222 50.7185 30.3878L32.7195 11.8042C32.3266 11.3986 31.6758 11.3986 31.2829 11.8042L13.2837 30.3878C12.6692 31.0222 13.1189 32.0835 14.0019 32.0835Z" fill="#505050"/>
<path d="M24.2754 48.4973C23.7231 48.4973 23.2754 48.9451 23.2754 49.4973V51.4995C23.2754 52.0519 23.7231 52.4995 24.2754 52.4995H39.7265C40.279 52.4995 40.7265 52.0519 40.7265 51.4995V49.4973C40.7265 48.9451 40.279 48.4973 39.7265 48.4973H24.2754Z" fill="#505050"/>
</svg>
