<svg width="64" height="64" viewBox="0 0 64 64" fill="none" xmlns="http://www.w3.org/2000/svg">
<path fill-rule="evenodd" clip-rule="evenodd" d="M28.0817 3.91904C28.8628 4.70009 28.8628 5.96642 28.0817 6.74747C27.39 7.43918 27.39 8.56066 28.0817 9.25237C30.3355 11.5062 30.3355 15.1603 28.0817 17.4141C27.3007 18.1952 26.0344 18.1952 25.2533 17.4141C24.4723 16.6331 24.4723 15.3668 25.2533 14.5857C25.945 13.894 25.945 12.7725 25.2533 12.0808C22.9995 9.82699 22.9995 6.17285 25.2533 3.91904C26.0344 3.13799 27.3007 3.13799 28.0817 3.91904ZM16.0813 7.91904C16.8624 8.70009 16.8624 9.96642 16.0813 10.7475L15.7717 11.0571C15.123 11.7058 15.05 12.7327 15.6005 13.4666C17.3452 15.7929 17.1139 19.0483 15.0576 21.1045L14.748 21.4141C13.967 22.1952 12.7006 22.1952 11.9196 21.4141C11.1385 20.6331 11.1385 19.3668 11.9196 18.5857L12.2292 18.2761C12.8779 17.6274 12.9509 16.6005 12.4005 15.8666C10.6557 13.5402 10.887 10.2849 12.9433 8.22868L13.2529 7.91904C14.034 7.13799 15.3003 7.13799 16.0813 7.91904ZM41.4147 7.91904C42.1957 8.70009 42.1957 9.96642 41.4147 10.7475L41.105 11.0571C40.4564 11.7058 40.3834 12.7327 40.9338 13.4666C42.6786 15.7929 42.4472 19.0483 40.391 21.1045L40.0813 21.4141C39.3003 22.1952 38.034 22.1952 37.2529 21.4141C36.4719 20.6331 36.4719 19.3668 37.2529 18.5857L37.5625 18.2761C38.2112 17.6274 38.2842 16.6005 37.7338 15.8666C35.989 13.5402 36.2204 10.2849 38.2766 8.22868L38.5862 7.91904C39.3673 7.13799 40.6336 7.13799 41.4147 7.91904ZM12.3935 24.6665C12.4538 24.6666 12.5149 24.6666 12.5769 24.6666H40.7574C40.8194 24.6666 40.8805 24.6666 40.9407 24.6665C41.9078 24.6661 42.6497 24.6658 43.2911 24.7798C45.0556 25.0935 46.5848 26.025 47.6643 27.3333H50.6671C56.19 27.3333 60.6671 31.8104 60.6671 37.3333C60.6671 42.8561 56.19 47.3333 50.6671 47.3333H47.0611C45.893 50.3461 43.8636 52.9858 41.1832 54.8969C38.3524 56.9152 34.9623 57.9999 31.4856 57.9999H21.8486C18.3719 57.9999 14.9819 56.9152 12.151 54.8969C8.30887 52.1576 5.80447 47.9211 5.25666 43.2343L4.18818 34.0929C4.18098 34.0313 4.17386 33.9706 4.16684 33.9108C4.05414 32.9503 3.96769 32.2134 4.00649 31.5631C4.20847 28.1783 6.70466 25.3734 10.0431 24.7798C10.6845 24.6658 11.4264 24.6661 12.3935 24.6665ZM43.9159 43.9228C43.5561 44.2844 43.3338 44.7829 43.3338 45.3333C43.3338 45.4802 43.3496 45.6234 43.3797 45.7613C42.4995 48.1052 40.937 50.1599 38.8611 51.6399C36.7081 53.1749 34.1298 53.9999 31.4856 53.9999H21.8486C19.2044 53.9999 16.6261 53.1749 14.4731 51.6399C11.551 49.5565 9.64625 46.3345 9.22962 42.77L8.16113 33.6285C8.0176 32.4005 7.98457 32.0497 7.99939 31.8014C8.0912 30.2628 9.22583 28.9879 10.7433 28.7181C10.9883 28.6745 11.3405 28.6666 12.5769 28.6666H40.7574C41.9937 28.6666 42.346 28.6745 42.5909 28.7181C44.1084 28.9879 45.243 30.2628 45.3349 31.8014C45.3497 32.0497 45.3166 32.4005 45.1731 33.6285L44.1046 42.77C44.0592 43.1586 43.9961 43.5433 43.9159 43.9228ZM48.0657 43.3333H50.6671C53.9808 43.3333 56.6671 40.647 56.6671 37.3333C56.6671 34.0195 53.9808 31.3333 50.6671 31.3333H49.3104C49.3174 31.4096 49.3232 31.4862 49.3277 31.5631C49.3666 32.2134 49.2801 32.9503 49.1674 33.9108C49.1604 33.9706 49.1533 34.0313 49.1461 34.0929L48.0776 43.2343C48.0737 43.2673 48.0698 43.3003 48.0657 43.3333Z" fill="white"/>
</svg>
