<svg width="64" height="64" viewBox="0 0 64 64" fill="none" xmlns="http://www.w3.org/2000/svg">
<path d="M58.6654 26.6665V15.9998C58.6654 13.0665 56.2654 10.6665 53.332 10.6665H10.6654C7.73203 10.6665 5.3587 13.0665 5.3587 15.9998V26.6665C8.29203 26.6665 10.6654 29.0665 10.6654 31.9998C10.6654 34.9332 8.29203 37.3332 5.33203 37.3332V47.9998C5.33203 50.9332 7.73203 53.3332 10.6654 53.3332H53.332C56.2654 53.3332 58.6654 50.9332 58.6654 47.9998V37.3332C55.732 37.3332 53.332 34.9332 53.332 31.9998C53.332 29.0665 55.732 26.6665 58.6654 26.6665ZM53.332 22.7732C50.1587 24.6132 47.9987 28.0798 47.9987 31.9998C47.9987 35.9198 50.1587 39.3865 53.332 41.2265V47.9998H10.6654V41.2265C13.8387 39.3865 15.9987 35.9198 15.9987 31.9998C15.9987 28.0532 13.8654 24.6132 10.692 22.7732L10.6654 15.9998H53.332V22.7732ZM24.1854 42.6665L31.9987 37.6532L39.812 42.6665L37.4387 33.7065L44.612 27.8398L35.3587 27.2798L31.9987 18.6665L28.612 27.2532L19.3587 27.8132L26.532 33.6798L24.1854 42.6665Z" fill="white"/>
</svg>
